<svg width="25" height="25" viewBox="0 0 25 25" fill="none" xmlns="http://www.w3.org/2000/svg">
<path opacity="0.2" d="M21.0757 12.8321C21.0757 14.6121 20.5478 16.3522 19.5589 17.8322C18.57 19.3122 17.1644 20.4658 15.5198 21.147C13.8753 21.8282 12.0657 22.0064 10.3199 21.6591C8.57405 21.3119 6.9704 20.4547 5.71173 19.196C4.45305 17.9374 3.59589 16.3337 3.24862 14.5879C2.90135 12.842 3.07958 11.0324 3.76077 9.38791C4.44196 7.74338 5.59551 6.33777 7.07556 5.34884C8.5556 4.3599 10.2957 3.83206 12.0757 3.83206C14.4626 3.83206 16.7518 4.78027 18.4396 6.4681C20.1275 8.15593 21.0757 10.4451 21.0757 12.8321Z" fill="#99C355"/>
<path d="M12.0757 3.08206C10.1473 3.08206 8.26226 3.65389 6.65888 4.72523C5.0555 5.79658 3.80582 7.31932 3.06786 9.1009C2.32991 10.8825 2.13683 12.8429 2.51303 14.7342C2.88924 16.6255 3.81783 18.3628 5.1814 19.7264C6.54496 21.0899 8.28224 22.0185 10.1736 22.3947C12.0649 22.7709 14.0253 22.5778 15.8069 21.8399C17.5884 21.1019 19.1112 19.8523 20.1825 18.2489C21.2539 16.6455 21.8257 14.7604 21.8257 12.8321C21.823 10.247 20.7949 7.76867 18.967 5.94079C17.1391 4.1129 14.6607 3.08479 12.0757 3.08206ZM12.0757 21.0821C10.444 21.0821 8.84894 20.5982 7.49223 19.6917C6.13553 18.7852 5.0781 17.4967 4.45368 15.9892C3.82926 14.4817 3.66588 12.8229 3.98421 11.2226C4.30254 9.62222 5.08827 8.15221 6.24206 6.99843C7.39584 5.84465 8.86585 5.05891 10.4662 4.74058C12.0665 4.42226 13.7253 4.58563 15.2328 5.21006C16.7403 5.83448 18.0288 6.8919 18.9353 8.24861C19.8418 9.60531 20.3257 11.2004 20.3257 12.8321C20.3232 15.0193 19.4532 17.1163 17.9066 18.663C16.3599 20.2096 14.263 21.0796 12.0757 21.0821ZM14.8563 12.3014C14.926 12.3711 14.9814 12.4538 15.0191 12.5449C15.0569 12.6359 15.0763 12.7335 15.0763 12.8321C15.0763 12.9306 15.0569 13.0282 15.0191 13.1193C14.9814 13.2103 14.926 13.293 14.8563 13.3627L11.1063 17.1127C11.0366 17.1824 10.9539 17.2376 10.8629 17.2754C10.7718 17.3131 10.6742 17.3325 10.5757 17.3325C10.4771 17.3325 10.3796 17.3131 10.2885 17.2754C10.1975 17.2376 10.1147 17.1824 10.0451 17.1127C9.97538 17.043 9.9201 16.9603 9.88239 16.8692C9.84468 16.7782 9.82527 16.6806 9.82527 16.5821C9.82527 16.4835 9.84468 16.3859 9.88239 16.2949C9.9201 16.2038 9.97538 16.1211 10.0451 16.0514L13.2654 12.8321L10.0451 9.61269C9.90433 9.47196 9.82527 9.28108 9.82527 9.08206C9.82527 8.88304 9.90433 8.69217 10.0451 8.55144C10.1858 8.41071 10.3767 8.33164 10.5757 8.33164C10.7747 8.33164 10.9656 8.41071 11.1063 8.55144L14.8563 12.3014Z" fill="#99C355"/>
</svg>
