<svg width="1728" height="754" viewBox="0 0 1728 754" fill="none" xmlns="http://www.w3.org/2000/svg">
<path d="M1742.18 619.436C1738.43 639.912 1718.07 685.281 1699.81 694.107C1699.03 694.495 1698.22 694.81 1697.46 695.054C1697.2 695.123 1696.93 695.216 1696.68 695.262C1696.68 695.262 1615.56 669.317 1622.47 641.191C1622.6 640.642 1622.78 640.06 1623.01 639.505C1623.11 639.281 1623.17 639.067 1623.27 638.843C1632.25 616.311 1654.36 647.255 1663.42 637.455C1672.57 627.55 1618.7 602.407 1626.71 586.602C1626.79 586.462 1626.87 586.322 1626.95 586.181C1627.39 585.41 1627.85 584.735 1628.35 584.185C1636.82 574.978 1655.24 595.405 1658.73 581.955C1662.25 568.459 1634.59 536.927 1657.78 527.866C1658.5 527.594 1659.25 527.313 1660.1 527.086C1661.11 526.795 1662.2 526.522 1663.39 526.303C1686.75 521.922 1692.89 573.552 1692.89 573.552C1692.89 573.552 1699.94 547.032 1713.65 550.613C1713.95 550.692 1714.27 550.784 1714.58 550.899C1715.08 551.062 1715.51 551.282 1715.96 551.538C1734.64 562.387 1692.34 643.11 1720.21 614.113C1728.55 605.455 1735.04 601.598 1738.95 602.607C1739.77 602.802 1740.46 603.23 1741.04 603.846C1743.23 606.167 1743.74 611.388 1742.25 619.477L1742.18 619.436Z" fill="#CEBF5A"/>
<path d="M1738.89 602.543C1738.37 603.553 1737.83 604.548 1737.29 605.544C1733.68 612.224 1729.86 618.782 1726.03 625.363C1721.61 632.914 1717.13 640.4 1712.62 647.896C1708.81 654.213 1704.97 660.54 1701.12 666.83C1699.88 668.885 1698.6 670.926 1697.36 672.98C1696.98 670.393 1696.56 667.815 1696.15 665.237C1693.91 651.782 1691.02 638.482 1687.89 625.204C1688.84 622.696 1689.83 620.178 1690.78 617.67C1693.12 611.567 1695.46 605.465 1697.79 599.362C1700.65 591.876 1703.52 584.365 1706.35 576.865C1708.89 570.157 1711.42 563.449 1713.93 556.728C1714.56 554.975 1715.25 553.25 1715.9 551.474C1715.48 551.231 1715.01 551.021 1714.52 550.835C1714.22 550.72 1713.89 550.628 1713.6 550.55C1713.19 551.687 1712.77 552.847 1712.32 553.994C1709.94 560.445 1707.52 566.905 1705.08 573.352C1702.23 580.876 1699.38 588.4 1696.51 595.91C1694.09 602.273 1691.64 608.623 1689.21 614.987C1688.42 616.996 1687.67 618.996 1686.89 621.005C1686.75 620.429 1686.63 619.889 1686.48 619.336C1683.7 607.844 1680.92 596.353 1677.73 584.97C1674.72 574.192 1671.57 563.452 1668.26 552.753C1665.62 544.149 1662.93 535.579 1660.02 527.068C1659.19 527.309 1658.43 527.554 1657.7 527.849C1660.06 534.766 1662.27 541.746 1664.45 548.713C1667.77 559.329 1670.94 569.985 1673.97 580.68C1676.88 590.872 1679.47 601.13 1682.01 611.421C1682.87 614.945 1683.74 618.469 1684.57 622.003C1682.89 620.911 1681.24 619.771 1679.58 618.655C1674.31 615.145 1669.03 611.598 1663.77 608.064C1657.63 603.957 1651.48 599.813 1645.35 595.682C1640.14 592.175 1634.91 588.655 1629.7 585.149C1629.22 584.842 1628.73 584.498 1628.24 584.154C1627.74 584.704 1627.26 585.365 1626.84 586.151C1631.78 589.472 1636.75 592.807 1641.69 596.128C1647.8 600.245 1653.93 604.376 1660.07 608.483C1665.52 612.161 1671.01 615.83 1676.48 619.485C1679.42 621.465 1682.39 623.457 1685.37 625.367C1687.77 635.577 1690.03 645.803 1691.98 656.095C1693.18 662.397 1694.24 668.716 1695.13 675.06C1694.35 674.735 1693.56 674.373 1692.78 674.048C1690.44 673.013 1688.15 671.907 1685.86 670.802C1679.39 667.692 1672.99 664.464 1666.57 661.223C1659.31 657.533 1652.05 653.807 1644.81 650.093C1638.75 646.971 1632.71 643.826 1626.67 640.681C1625.49 640.066 1624.34 639.464 1623.17 638.85C1623.07 639.074 1623.01 639.288 1622.91 639.512C1622.71 640.08 1622.54 640.639 1622.38 641.197C1622.91 641.508 1623.48 641.772 1624.03 642.059C1629.8 645.079 1635.56 648.062 1641.35 651.059C1648.55 654.782 1655.77 658.482 1663 662.159C1669.61 665.508 1676.22 668.857 1682.89 672.112C1686.91 674.059 1690.96 676.177 1695.18 677.713C1695.28 677.767 1695.38 677.798 1695.49 677.829C1696.27 683.55 1696.91 689.31 1697.38 695.074C1697.54 697.128 1697.69 699.182 1697.83 701.222C1697.88 702.097 1697.94 702.971 1697.96 703.856C1697.99 704.341 1698.01 704.851 1698.02 705.36C1698.02 705.48 1698.01 705.661 1698.02 705.795C1698.04 705.869 1698.04 705.929 1698.01 705.976C1696.73 705.984 1696.57 708.103 1697.97 708.418C1699.5 708.739 1700.37 707.182 1700.44 705.88C1700.55 704.011 1700.28 702.047 1700.17 700.178C1700.05 698.174 1699.91 696.157 1699.73 694.15C1699.58 692.29 1699.42 690.417 1699.22 688.554C1698.81 684.61 1698.36 680.699 1697.8 676.794C1699.18 674.566 1700.53 672.348 1701.91 670.12C1705.62 664.064 1709.31 657.994 1712.98 651.911C1717.52 644.368 1722.03 636.834 1726.5 629.251C1730.53 622.379 1734.55 615.47 1738.39 608.49C1739.25 606.956 1740.08 605.409 1740.89 603.848C1740.31 603.233 1739.62 602.804 1738.79 602.61L1738.89 602.543Z" fill="#C18E74"/>
<path d="M1669.75 618.737C1680.02 633.581 1695.32 673.88 1689.57 690.485C1689.31 691.207 1689.04 691.893 1688.71 692.514C1688.59 692.725 1688.48 692.912 1688.36 693.122C1688.36 693.122 1622.72 726.942 1609.7 705.46C1609.45 705.034 1609.21 704.584 1608.99 704.111C1608.9 703.936 1608.83 703.738 1608.74 703.564C1600.44 684.24 1632.96 689.64 1632.5 678.082C1632.04 666.404 1583.61 684.004 1578.81 669.416C1578.76 669.291 1578.72 669.144 1578.69 669.033C1578.47 668.282 1578.37 667.598 1578.33 666.955C1577.88 656.124 1601.68 657.359 1595.59 646.951C1589.48 636.53 1553.17 634.121 1561.83 614.364C1562.1 613.739 1562.39 613.127 1562.77 612.472C1563.22 611.677 1563.71 610.835 1564.29 609.987C1575.93 592.973 1611.33 620.868 1611.33 620.868C1611.33 620.868 1599.42 600.299 1610 594.062C1610.24 593.919 1610.5 593.79 1610.76 593.661C1611.16 593.455 1611.58 593.323 1611.99 593.214C1630.1 588.421 1653.65 663.854 1652.96 628.968C1652.75 618.527 1654.38 612.2 1657.4 610.422C1658.03 610.036 1658.72 609.872 1659.44 609.915C1662.19 610.008 1665.71 612.88 1669.76 618.774L1669.75 618.737Z" fill="#E2B037"/>
<path d="M1657.38 610.408C1657.67 611.357 1657.94 612.293 1658.24 613.242C1660.12 619.538 1661.81 625.906 1663.48 632.298C1665.39 639.635 1667.26 646.982 1669.09 654.339C1670.66 660.543 1672.14 666.766 1673.67 672.98C1674.15 675.005 1674.64 677.03 1675.14 679.069C1673.34 677.715 1671.5 676.37 1669.66 675.062C1660.03 668.193 1650.1 661.801 1640.07 655.573C1639.12 653.435 1638.17 651.298 1637.23 649.197C1634.92 644.025 1632.61 638.829 1630.32 633.671C1627.47 627.317 1624.65 620.978 1621.78 614.611C1619.22 608.929 1616.66 603.27 1614.06 597.621C1613.37 596.164 1612.74 594.674 1612.06 593.194C1611.66 593.303 1611.24 593.435 1610.84 593.641C1610.58 593.77 1610.32 593.9 1610.08 594.043C1610.53 594.989 1610.97 595.959 1611.4 596.929C1613.91 602.367 1616.37 607.777 1618.83 613.224C1621.71 619.591 1624.56 625.945 1627.39 632.321C1629.8 637.705 1632.2 643.112 1634.61 648.495C1635.37 650.21 1636.14 651.902 1636.89 653.616C1636.45 653.36 1636.03 653.117 1635.6 652.837C1626.84 647.472 1618.09 642.168 1609.15 637.13C1600.71 632.353 1592.17 627.703 1583.6 623.16C1576.71 619.491 1569.79 615.907 1562.8 612.462C1562.44 613.094 1562.13 613.729 1561.87 614.354C1567.56 617.139 1573.2 620.055 1578.82 623.018C1587.35 627.511 1595.84 632.097 1604.27 636.777C1612.29 641.251 1619.29 644.672 1627.15 649.426C1629.85 651.076 1633.42 653.953 1636.12 655.603C1634.42 655.96 1632.72 656.257 1631.01 656.615C1625.61 657.706 1620.23 658.774 1614.83 659.805C1608.54 661.037 1602.24 662.268 1595.94 663.523C1590.59 664.581 1585.23 665.602 1579.88 666.66C1579.39 666.752 1578.9 666.844 1578.37 666.945C1578.4 667.588 1578.49 668.295 1578.73 669.023C1583.82 668.034 1588.89 667.032 1593.96 666.03C1600.24 664.822 1606.51 663.577 1612.78 662.332C1618.37 661.228 1623.97 660.124 1629.58 658.997C1632.6 658.404 1635.62 657.811 1638.65 657.158C1646.4 661.942 1654.03 666.816 1661.55 671.938C1666.13 675.08 1670.67 678.292 1675.1 681.631C1674.43 681.93 1673.72 682.178 1673.04 682.44C1670.96 683.234 1668.89 683.968 1666.81 684.703C1660.94 686.77 1655.04 688.727 1649.13 690.647C1642.4 692.844 1635.69 695.018 1628.97 697.155C1623.34 698.959 1617.71 700.726 1612.07 702.493C1611 702.84 1609.9 703.173 1608.81 703.507C1608.88 703.705 1608.96 703.879 1609.05 704.054C1609.28 704.527 1609.52 704.977 1609.77 705.404C1610.3 705.242 1610.79 705.09 1611.3 704.915C1616.67 703.217 1622.05 701.519 1627.43 699.822C1634.11 697.694 1640.81 695.543 1647.52 693.369C1653.63 691.377 1659.75 689.361 1665.82 687.281C1669.49 686.001 1673.25 684.835 1676.78 683.196C1676.87 683.153 1676.96 683.11 1677.05 683.067C1681.03 686.113 1684.95 689.252 1688.76 692.481C1690.12 693.639 1691.48 694.798 1692.79 695.989C1693.36 696.508 1693.92 696.989 1694.5 697.508C1694.83 697.794 1695.16 698.08 1695.46 698.376C1695.54 698.453 1695.63 698.568 1695.71 698.645C1695.76 698.672 1695.8 698.699 1695.84 698.749C1695.06 699.55 1696.25 700.952 1697.29 700.277C1698.44 699.535 1698.02 698.046 1697.26 697.202C1696.18 695.988 1694.82 694.95 1693.6 693.873C1692.3 692.718 1690.97 691.573 1689.62 690.452C1688.39 689.398 1687.14 688.367 1685.88 687.323C1683.22 685.168 1680.52 683.046 1677.79 680.97C1677.26 678.76 1676.75 676.564 1676.21 674.354C1674.77 668.376 1673.3 662.384 1671.84 656.391C1669.99 648.997 1668.15 641.604 1666.23 634.229C1664.49 627.519 1662.73 620.856 1660.79 614.218C1660.36 612.753 1659.93 611.287 1659.48 609.845C1658.75 609.825 1658.06 609.989 1657.44 610.351L1657.38 610.408Z" fill="#C18E74"/>
<path d="M93.9767 588.191C134.16 547.925 192.855 527.486 198.854 528.878C188.525 549.965 189.18 575.318 181.457 597.596C173.779 619.701 157.162 636.917 139.249 651.847C92.4442 690.862 55.029 691.732 43.4827 690.024C43.4827 690.024 40.9633 641.301 93.9767 588.191Z" fill="#408F4E"/>
<path d="M119.005 666.86C119.931 666.277 120.836 665.658 121.777 665.018L77.7039 650.53C85.8315 641.104 93.7192 632.229 101.302 623.919L150.288 642.124C150.992 641.45 151.688 640.806 152.391 640.133L103.175 621.866C114.048 610.006 124.267 599.324 133.563 589.903L181.313 598.019C181.313 598.019 181.411 597.768 181.449 597.624C181.699 596.922 181.891 596.204 182.141 595.501L135.8 587.64C142.498 580.908 148.68 574.839 154.244 569.466C175.011 549.514 190.735 536.091 198.479 529.701C198.614 529.43 198.719 529.15 198.854 528.878C198.193 528.701 196.864 528.838 194.975 529.224C187.244 535.678 173.676 547.371 156.248 563.939L151.764 546.671C150.978 547.076 150.185 547.51 149.399 547.915L154.1 565.98C153.566 566.483 153.031 566.986 152.488 567.518C138.685 580.779 121.175 598.341 101.508 619.819L92.4505 589.752C91.7391 590.454 91.0488 591.192 90.3661 591.902L99.4576 622.071C87.6141 635.026 75.026 649.382 61.99 665.065C60.6678 660.925 57.7218 651.702 54.9876 643.182C54.4403 644.42 53.9084 645.601 53.4052 646.79C55.8513 654.432 58.4348 662.481 60.0241 667.462C54.5696 674.034 49.0535 680.836 43.5123 687.846C43.4665 689.281 43.5116 690.031 43.5116 690.031C43.9577 690.089 44.4326 690.155 44.9439 690.2C55.495 676.898 65.8671 664.38 75.9011 652.664L119.042 666.839L119.005 666.86Z" fill="#CEBF5A"/>
<path d="M-0.336442 610.721C-3.1799 560.681 17.8782 510.119 22.3155 506.999C30.1063 526.169 47.1357 540.613 57.2221 558.798C67.2243 576.837 68.7964 597.85 68.0689 618.369C66.193 672.008 44.7843 697.113 36.8917 703.709C36.8917 703.709 3.42822 676.736 -0.336442 610.721Z" fill="#408F4E"/>
<path d="M66.0527 640.483C66.184 639.533 66.3518 638.563 66.4909 637.584L31.0976 658.018C29.6723 647.141 28.484 636.757 27.4674 626.882L68.1937 605.383C68.1794 604.517 68.1574 603.68 68.1067 602.836L27.206 624.411C25.7846 610.302 24.7986 597.326 24.0637 585.71L57.419 559.096C57.419 559.096 57.2928 558.878 57.2585 558.776C56.9508 558.202 56.6067 557.648 56.2627 557.094L23.8947 582.894C23.3933 574.542 23.0386 566.905 22.7997 560.101C21.8993 534.743 22.3137 516.54 22.6575 507.675C22.5678 507.436 22.4493 507.189 22.3309 506.942C21.8344 507.301 21.1267 508.219 20.265 509.712C19.9786 518.592 19.6916 534.367 20.3308 555.53L6.34548 548.335C6.14541 549.082 5.93766 549.858 5.79502 550.62L20.4311 558.143C20.4418 558.792 20.4812 559.449 20.4919 560.098C21.0884 576.94 22.3512 598.763 24.8927 624.314L-0.16635 612.613C-0.0946311 613.494 -0.0515991 614.368 0.0201221 615.249L25.1576 627.001C26.7307 642.382 28.7503 659.082 31.3796 676.839C27.8863 675.287 20.0844 671.781 12.8758 668.587C13.3552 669.67 13.8423 670.724 14.3371 671.749C20.8011 674.62 27.5866 677.669 31.7958 679.536C32.9111 686.976 34.1314 694.597 35.4646 702.373C36.402 703.239 36.9071 703.652 36.9071 703.652C37.2215 703.397 37.5436 703.114 37.8734 702.802C35.3305 688.055 33.1891 673.876 31.403 660.439L66.0604 640.454L66.0527 640.483Z" fill="#CEBF5A"/>
<path d="M140.869 647.295C190.909 644.451 241.471 665.509 244.591 669.947C225.42 677.737 210.977 694.767 192.792 704.853C174.753 714.855 153.74 716.427 133.22 715.7C79.5815 713.824 54.4767 692.415 47.8808 684.523C47.8808 684.523 74.8535 651.059 140.869 647.295Z" fill="#408F4E"/>
<path d="M111.107 713.684C112.057 713.815 113.027 713.983 114.006 714.122L93.5716 678.729C104.449 677.304 114.833 676.115 124.708 675.099L146.207 715.825C147.073 715.811 147.91 715.789 148.754 715.738L127.179 674.837C141.288 673.416 154.264 672.43 165.88 671.695L192.493 705.05C192.493 705.05 192.712 704.924 192.813 704.89C193.388 704.582 193.942 704.238 194.496 703.894L168.696 671.526C177.048 671.025 184.684 670.67 191.489 670.431C216.847 669.531 235.05 669.945 243.914 670.289C244.154 670.199 244.401 670.081 244.648 669.962C244.289 669.466 243.342 668.75 241.878 667.896C232.998 667.61 217.223 667.323 196.06 667.962L203.254 653.977C202.508 653.777 201.732 653.569 200.97 653.426L193.447 668.062C192.798 668.073 192.141 668.112 191.492 668.123C174.65 668.72 152.827 669.982 127.276 672.524L138.977 647.465C138.096 647.537 137.222 647.58 136.341 647.651L124.589 672.789C109.208 674.362 92.5076 676.382 74.7511 679.011C76.3028 675.518 79.8091 667.716 83.0026 660.507C81.92 660.986 80.8661 661.474 79.8409 661.968C76.9701 668.432 73.9207 675.218 72.0541 679.427C64.6144 680.542 56.9926 681.763 49.2174 683.096C48.3507 684.033 47.9383 684.538 47.9383 684.538C48.1926 684.853 48.4757 685.175 48.7874 685.505C63.5352 682.962 77.7136 680.82 91.1505 679.034L111.136 713.692L111.107 713.684Z" fill="#CEBF5A"/>
<path d="M106.295 164.899C91.4674 152.184 73.8323 143.15 55.163 137.518C36.9194 132.008 17.7748 129.884 -1.27399 130.172C-11.8692 130.318 -22.4279 131.261 -32.9359 132.759C-34.1856 132.937 -34.0744 134.892 -32.8247 134.715C-14.3083 132.073 4.54654 131.207 23.1589 133.179C42.0942 135.181 60.7701 140.104 77.8614 148.576C87.5819 153.382 96.7045 159.331 104.943 166.382C105.892 167.209 107.207 165.736 106.245 164.933L106.295 164.899Z" fill="#CEBF5A"/>
<path d="M-0.724082 130.831C-0.724082 130.831 41.4175 122.606 55.4001 84.2631C55.4001 84.2631 15.2581 83.2251 -0.724082 130.831Z" fill="#CEBF5A"/>
<path d="M32.9564 132.696C32.9564 132.696 73.7002 128.718 90.4495 93.5848C90.4495 93.5848 52.435 88.9692 32.9564 132.696Z" fill="#CEBF5A"/>
<path d="M31.884 134.124C31.884 134.124 14.8755 171.37 36.8642 203.475C36.8642 203.475 59.9311 172.92 31.884 134.124Z" fill="#CEBF5A"/>
<path d="M-3.65297 131.124C-3.65297 131.124 -15.9934 170.167 9.75513 199.357C9.75513 199.357 28.9236 166.21 -3.65297 131.124Z" fill="#CEBF5A"/>
<path d="M65.1499 142.292C65.1499 142.292 100.476 142.596 118.025 113.971C118.025 113.971 85.8453 106.554 65.1499 142.292Z" fill="#CEBF5A"/>
<path d="M60.2476 139.988C60.2476 139.988 43.7089 171.212 61.0264 199.969C61.0264 199.969 82.4572 174.825 60.2476 139.988Z" fill="#CEBF5A"/>
<path d="M85.6542 150.223C85.6542 150.223 116.202 164.388 142.743 146.504C142.743 146.504 117.726 127.378 85.6542 150.223Z" fill="#CEBF5A"/>
<path d="M87.6474 152.893C87.6474 152.893 73.483 183.441 91.3666 209.982C91.3666 209.982 110.492 184.965 87.6474 152.893Z" fill="#CEBF5A"/>
<path d="M101.821 161.479C101.821 161.479 110.502 194.024 141.233 202.93C141.233 202.93 139.935 171.454 101.821 161.479Z" fill="#CEBF5A"/>
<path d="M1614.65 120.607C1629.49 107.465 1647.25 98.0082 1666.08 91.9737C1684.51 86.1012 1703.91 83.5902 1723.23 83.5902C1733.98 83.5699 1744.71 84.3394 1755.38 85.6962C1756.64 85.8582 1756.56 87.8427 1755.3 87.6807C1736.47 85.2912 1717.33 84.7444 1698.44 87.0327C1679.26 89.3615 1660.39 94.667 1643.18 103.537C1633.4 108.579 1624.22 114.755 1616 122.045C1615.05 122.875 1613.69 121.438 1614.67 120.587L1614.65 120.607Z" fill="#408F4E"/>
<path d="M1722.68 84.2583C1722.68 84.2583 1679.77 76.5835 1664.95 37.9058C1664.95 37.9058 1705.69 36.2047 1722.68 84.2583Z" fill="#408F4E"/>
<path d="M1688.56 86.7086C1688.56 86.7086 1647.15 83.3269 1629.57 47.9702C1629.57 47.9702 1668.07 42.6444 1688.56 86.7086Z" fill="#408F4E"/>
<path d="M1689.67 88.1464C1689.67 88.1464 1707.53 125.69 1685.74 158.617C1685.74 158.617 1661.83 127.978 1689.67 88.1464Z" fill="#408F4E"/>
<path d="M1725.66 84.5215C1725.66 84.5215 1738.8 123.949 1713.16 154C1713.16 154 1693.18 120.688 1725.66 84.5215Z" fill="#408F4E"/>
<path d="M1656.02 96.9754C1656.02 96.9754 1620.17 97.8259 1601.89 69.091C1601.89 69.091 1634.43 61.0517 1656.02 96.9754Z" fill="#408F4E"/>
<path d="M1660.96 94.5455C1660.96 94.5455 1678.23 125.953 1661.14 155.438C1661.14 155.438 1639.01 130.267 1660.96 94.5455Z" fill="#408F4E"/>
<path d="M1635.36 105.359C1635.36 105.359 1604.58 120.263 1577.37 102.484C1577.37 102.484 1602.46 82.6586 1635.36 105.359Z" fill="#408F4E"/>
<path d="M1633.36 108.093C1633.36 108.093 1648.26 138.873 1630.48 166.089C1630.48 166.089 1610.66 140.999 1633.36 108.093Z" fill="#408F4E"/>
<path d="M1619.1 117.043C1619.1 117.043 1610.84 150.213 1579.78 159.771C1579.78 159.771 1580.59 127.816 1619.1 117.043Z" fill="#408F4E"/>
</svg>
