<svg width="33" height="32" viewBox="0 0 33 32" fill="none" xmlns="http://www.w3.org/2000/svg">
<g clip-path="url(#clip0_37_1087)">
<path d="M29.362 16C29.3579 19.1772 28.1922 22.2433 26.0844 24.6208C23.9765 26.9982 21.0721 28.5228 17.9183 28.9075C17.848 28.9154 17.7769 28.9084 17.7096 28.8869C17.6423 28.8653 17.5803 28.8297 17.5277 28.7825C17.4752 28.7353 17.4332 28.6774 17.4047 28.6128C17.3761 28.5481 17.3616 28.4781 17.362 28.4075V19H20.362C20.4991 19.0003 20.6348 18.9724 20.7606 18.918C20.8865 18.8637 20.9998 18.784 21.0936 18.6841C21.1874 18.5841 21.2596 18.4659 21.3058 18.3368C21.3519 18.2077 21.3711 18.0705 21.362 17.9337C21.3399 17.6766 21.2213 17.4373 21.03 17.2641C20.8386 17.0909 20.5888 16.9965 20.3308 17H17.362V14C17.362 13.4695 17.5727 12.9608 17.9478 12.5858C18.3229 12.2107 18.8316 12 19.362 12H21.362C21.4991 12.0003 21.6348 11.9724 21.7606 11.918C21.8865 11.8637 21.9998 11.784 22.0936 11.6841C22.1874 11.5841 22.2596 11.4659 22.3058 11.3368C22.3519 11.2077 22.3711 11.0705 22.362 10.9337C22.3399 10.6761 22.2209 10.4365 22.029 10.2632C21.8372 10.0899 21.5868 9.99586 21.3283 9.99997H19.362C18.3011 9.99997 17.2837 10.4214 16.5336 11.1715C15.7834 11.9217 15.362 12.9391 15.362 14V17H12.362C12.2249 16.9997 12.0892 17.0276 11.9634 17.0819C11.8375 17.1362 11.7242 17.2159 11.6304 17.3159C11.5366 17.4159 11.4644 17.5341 11.4182 17.6632C11.3721 17.7922 11.3529 17.9294 11.362 18.0662C11.3841 18.3238 11.5031 18.5634 11.695 18.7367C11.8868 18.91 12.1373 19.0041 12.3958 19H15.362V28.41C15.3624 28.4805 15.3479 28.5504 15.3194 28.6149C15.2909 28.6795 15.2491 28.7373 15.1967 28.7845C15.1443 28.8317 15.0824 28.8673 15.0153 28.8889C14.9481 28.9106 14.8771 28.9177 14.807 28.91C11.5687 28.5156 8.59646 26.9198 6.4786 24.4386C4.36073 21.9573 3.25161 18.7713 3.37075 15.5112C3.62075 8.76122 9.08825 3.27372 15.8433 3.01122C17.5921 2.94348 19.3367 3.22916 20.9726 3.85117C22.6085 4.47319 24.1021 5.41877 25.3642 6.63134C26.6262 7.84391 27.6308 9.29857 28.3177 10.9083C29.0046 12.5181 29.3598 14.2498 29.362 16Z" fill="white"/>
</g>
<defs>
<clipPath id="clip0_37_1087">
<rect width="32" height="32" fill="white" transform="translate(0.362061)"/>
</clipPath>
</defs>
</svg>
