<svg width="644" height="164" viewBox="0 0 644 164" fill="none" xmlns="http://www.w3.org/2000/svg">
<path d="M392.565 92.4596C385.268 92.4596 378.902 90.7568 373.47 87.3513C368.118 83.8647 364.47 79.2024 362.524 73.3644L375.902 67.0399C377.605 70.6076 379.916 73.405 382.835 75.4321C385.754 77.4591 388.997 78.4727 392.565 78.4727C395.16 78.4727 397.146 77.9456 398.525 76.8916C399.903 75.8375 400.592 74.378 400.592 72.5131C400.592 71.5401 400.349 70.7292 399.862 70.0806C399.376 69.3508 398.646 68.7021 397.673 68.1346C396.7 67.567 395.484 67.0805 394.025 66.6751L382.713 63.5128C377.281 61.9722 373.105 59.4992 370.186 56.0937C367.267 52.6071 365.807 48.5124 365.807 43.8096C365.807 39.6743 366.862 36.0661 368.97 32.9849C371.078 29.9038 374.037 27.5118 377.848 25.8091C381.659 24.0252 386.038 23.1333 390.984 23.1333C397.471 23.1333 403.146 24.6739 408.011 27.755C412.957 30.7551 416.444 35.012 418.471 40.5257L404.971 46.8502C403.998 44.0933 402.214 41.9041 399.619 40.2824C397.106 38.5797 394.227 37.7283 390.984 37.7283C388.632 37.7283 386.768 38.2148 385.389 39.1878C384.092 40.1608 383.443 41.4987 383.443 43.2014C383.443 44.0933 383.686 44.9042 384.173 45.6339C384.659 46.3637 385.43 47.0123 386.484 47.5799C387.619 48.1475 388.997 48.6745 390.619 49.161L401.2 52.3233C406.714 53.945 410.93 56.418 413.849 59.7424C416.768 62.9858 418.228 66.9994 418.228 71.7833C418.228 75.9186 417.133 79.5268 414.944 82.6079C412.836 85.6891 409.876 88.1216 406.065 89.9054C402.254 91.6082 397.754 92.4596 392.565 92.4596Z" fill="#006837"/>
<path d="M326.356 92.4596C319.789 92.4596 313.788 90.9595 308.356 87.9594C303.004 84.9593 298.707 80.8646 295.464 75.6753C292.301 70.4049 290.72 64.4453 290.72 57.7964C290.72 51.0665 292.301 45.1069 295.464 39.9175C298.707 34.7282 303.004 30.6335 308.356 27.6334C313.788 24.6333 319.789 23.1333 326.356 23.1333C332.924 23.1333 338.884 24.6333 344.235 27.6334C349.587 30.6335 353.844 34.7282 357.006 39.9175C360.249 45.1069 361.871 51.0665 361.871 57.7964C361.871 64.4453 360.249 70.4049 357.006 75.6753C353.844 80.8646 349.587 84.9593 344.235 87.9594C338.884 90.9595 332.924 92.4596 326.356 92.4596ZM326.356 76.0402C329.681 76.0402 332.559 75.2699 334.992 73.7293C337.505 72.1887 339.451 70.04 340.83 67.2832C342.289 64.5263 343.019 61.3641 343.019 57.7964C343.019 54.2288 342.289 51.107 340.83 48.4313C339.451 45.6745 337.505 43.5258 334.992 41.9852C332.559 40.3635 329.681 39.5527 326.356 39.5527C323.032 39.5527 320.113 40.3635 317.599 41.9852C315.086 43.5258 313.099 45.6745 311.64 48.4313C310.261 51.107 309.572 54.2288 309.572 57.7964C309.572 61.3641 310.261 64.5263 311.64 67.2832C313.099 70.04 315.086 72.1887 317.599 73.7293C320.113 75.2699 323.032 76.0402 326.356 76.0402Z" fill="#006837"/>
<path d="M280.273 91.7297C272.246 91.7297 266.002 89.581 261.543 85.2836C257.164 80.9051 254.975 74.8239 254.975 67.0399V40.404H243.785V24.5927H244.393C247.799 24.5927 250.394 23.7414 252.177 22.0386C254.042 20.3359 254.975 17.7817 254.975 14.3762V9.51123H273.219V24.5927H288.787V40.404H273.219V65.8236C273.219 68.0939 273.624 69.9994 274.435 71.54C275.246 72.9995 276.502 74.0941 278.205 74.8239C279.908 75.5536 282.016 75.9185 284.53 75.9185C285.097 75.9185 285.746 75.8779 286.476 75.7969C287.205 75.7158 287.976 75.6347 288.787 75.5536V91C287.57 91.1622 286.192 91.3243 284.651 91.4865C283.111 91.6486 281.651 91.7297 280.273 91.7297Z" fill="#006837"/>
<path d="M181.558 91.0001V24.5928H198.586V37.7283L197.612 34.8093C199.153 30.8362 201.626 27.9172 205.032 26.0523C208.518 24.1063 212.572 23.1333 217.194 23.1333C222.221 23.1333 226.6 24.1874 230.33 26.2956C234.141 28.4037 237.1 31.3633 239.208 35.1742C241.316 38.904 242.37 43.2825 242.37 48.3097V91.0001H224.127V52.2017C224.127 49.607 223.6 47.3772 222.546 45.5123C221.573 43.6474 220.154 42.1879 218.289 41.1338C216.505 40.0797 214.397 39.5527 211.964 39.5527C209.613 39.5527 207.505 40.0797 205.64 41.1338C203.775 42.1879 202.315 43.6474 201.261 45.5123C200.288 47.3772 199.802 49.607 199.802 52.2017V91.0001H181.558Z" fill="#006837"/>
<path d="M138.669 92.4595C133.318 92.4595 128.736 91.3244 124.925 89.054C121.196 86.7026 118.358 83.4593 116.412 79.324C114.466 75.1888 113.493 70.3643 113.493 64.8506V24.5928H131.736V63.3911C131.736 65.9047 132.223 68.1345 133.196 70.0805C134.25 71.9454 135.709 73.4049 137.574 74.459C139.439 75.5131 141.547 76.0401 143.899 76.0401C146.331 76.0401 148.44 75.5131 150.223 74.459C152.088 73.4049 153.507 71.9454 154.48 70.0805C155.534 68.1345 156.061 65.9047 156.061 63.3911V24.5928H174.305V91H157.278V77.8645L158.251 80.7835C156.71 84.7566 154.196 87.7161 150.71 89.6621C147.304 91.5271 143.291 92.4595 138.669 92.4595Z" fill="#006837"/>
<path d="M70.0136 91V73.9725H75.4867C79.1355 73.9725 82.0545 72.959 84.2437 70.9319C86.5141 68.8237 87.6492 66.0669 87.6492 62.6614V0.389404H106.501V61.81C106.501 67.648 105.244 72.7563 102.731 77.1348C100.217 81.5133 96.6089 84.9188 91.9061 87.3513C87.2844 89.7838 81.8112 91 75.4867 91H70.0136Z" fill="#006837"/>
<path d="M618.331 163.14C612.821 163.14 608.039 161.937 603.986 159.53C599.933 157.06 596.798 153.767 594.581 149.65C592.364 145.533 591.256 140.973 591.256 135.97C591.256 130.777 592.396 126.153 594.676 122.1C597.019 118.047 600.154 114.848 604.081 112.505C608.008 110.162 612.441 108.99 617.381 108.99C621.498 108.99 625.139 109.655 628.306 110.985C631.473 112.252 634.133 114.057 636.286 116.4C638.503 118.743 640.181 121.467 641.321 124.57C642.461 127.61 643.031 130.935 643.031 134.545C643.031 135.558 642.968 136.572 642.841 137.585C642.778 138.535 642.619 139.358 642.366 140.055H603.511V129.605H634.291L627.546 134.545C628.179 131.822 628.148 129.415 627.451 127.325C626.754 125.172 625.519 123.493 623.746 122.29C622.036 121.023 619.914 120.39 617.381 120.39C614.911 120.39 612.789 120.992 611.016 122.195C609.243 123.398 607.913 125.172 607.026 127.515C606.139 129.858 605.791 132.708 605.981 136.065C605.728 138.978 606.076 141.543 607.026 143.76C607.976 145.977 609.433 147.718 611.396 148.985C613.359 150.188 615.734 150.79 618.521 150.79C621.054 150.79 623.208 150.283 624.981 149.27C626.818 148.257 628.243 146.863 629.256 145.09L640.656 150.505C639.643 153.038 638.028 155.255 635.811 157.155C633.658 159.055 631.093 160.543 628.116 161.62C625.139 162.633 621.878 163.14 618.331 163.14Z" fill="#006837"/>
<path d="M573.418 162V90.085H587.668V162H573.418Z" fill="#006837"/>
<path d="M543.317 163.14C539.771 163.14 536.477 162.507 533.437 161.24C530.461 159.91 528.054 157.978 526.217 155.445L527.547 152.5V162H514.247V90.085H528.497V120.01L526.312 117.16C528.022 114.563 530.334 112.568 533.247 111.175C536.224 109.718 539.612 108.99 543.412 108.99C548.352 108.99 552.817 110.193 556.807 112.6C560.797 115.007 563.964 118.268 566.307 122.385C568.651 126.438 569.822 130.998 569.822 136.065C569.822 141.068 568.651 145.628 566.307 149.745C564.027 153.862 560.892 157.123 556.902 159.53C552.912 161.937 548.384 163.14 543.317 163.14ZM541.607 150.315C544.267 150.315 546.611 149.713 548.637 148.51C550.664 147.307 552.247 145.628 553.387 143.475C554.527 141.322 555.097 138.852 555.097 136.065C555.097 133.278 554.527 130.84 553.387 128.75C552.247 126.597 550.664 124.918 548.637 123.715C546.611 122.448 544.267 121.815 541.607 121.815C539.074 121.815 536.794 122.417 534.767 123.62C532.804 124.823 531.252 126.502 530.112 128.655C529.036 130.808 528.497 133.278 528.497 136.065C528.497 138.852 529.036 141.322 530.112 143.475C531.252 145.628 532.804 147.307 534.767 148.51C536.794 149.713 539.074 150.315 541.607 150.315Z" fill="#006837"/>
<path d="M494.32 162V110.13H508.57V162H494.32ZM494.32 105.475V91.2249H508.57V105.475H494.32Z" fill="#006837"/>
<path d="M442.2 162V110.13H455.5V120.39L454.74 118.11C455.943 115.007 457.875 112.727 460.535 111.27C463.258 109.75 466.425 108.99 470.035 108.99C473.961 108.99 477.381 109.813 480.295 111.46C483.271 113.107 485.583 115.418 487.23 118.395C488.876 121.308 489.7 124.728 489.7 128.655V162H475.45V131.695C475.45 129.668 475.038 127.927 474.215 126.47C473.455 125.013 472.346 123.873 470.89 123.05C469.496 122.227 467.85 121.815 465.95 121.815C464.113 121.815 462.466 122.227 461.01 123.05C459.553 123.873 458.413 125.013 457.59 126.47C456.83 127.927 456.45 129.668 456.45 131.695V162H442.2Z" fill="#006837"/>
<path d="M413.858 163.14C408.348 163.14 403.567 161.937 399.513 159.53C395.46 157.06 392.325 153.767 390.108 149.65C387.892 145.533 386.783 140.973 386.783 135.97C386.783 130.777 387.923 126.153 390.203 122.1C392.547 118.047 395.682 114.848 399.608 112.505C403.535 110.162 407.968 108.99 412.908 108.99C417.025 108.99 420.667 109.655 423.833 110.985C427 112.252 429.66 114.057 431.813 116.4C434.03 118.743 435.708 121.467 436.848 124.57C437.988 127.61 438.558 130.935 438.558 134.545C438.558 135.558 438.495 136.572 438.368 137.585C438.305 138.535 438.147 139.358 437.893 140.055H399.038V129.605H429.818L423.073 134.545C423.707 131.822 423.675 129.415 422.978 127.325C422.282 125.172 421.047 123.493 419.273 122.29C417.563 121.023 415.442 120.39 412.908 120.39C410.438 120.39 408.317 120.992 406.543 122.195C404.77 123.398 403.44 125.172 402.553 127.515C401.667 129.858 401.318 132.708 401.508 136.065C401.255 138.978 401.603 141.543 402.553 143.76C403.503 145.977 404.96 147.718 406.923 148.985C408.887 150.188 411.262 150.79 414.048 150.79C416.582 150.79 418.735 150.283 420.508 149.27C422.345 148.257 423.77 146.863 424.783 145.09L436.183 150.505C435.17 153.038 433.555 155.255 431.338 157.155C429.185 159.055 426.62 160.543 423.643 161.62C420.667 162.633 417.405 163.14 413.858 163.14Z" fill="#006837"/>
<path d="M378.623 162.57C372.353 162.57 367.476 160.892 363.993 157.535C360.573 154.115 358.863 149.365 358.863 143.285V122.48H350.123V110.13H350.598C353.258 110.13 355.285 109.465 356.678 108.135C358.135 106.805 358.863 104.81 358.863 102.15V98.3499H373.113V110.13H385.273V122.48H373.113V142.335C373.113 144.108 373.43 145.597 374.063 146.8C374.696 147.94 375.678 148.795 377.008 149.365C378.338 149.935 379.985 150.22 381.948 150.22C382.391 150.22 382.898 150.188 383.468 150.125C384.038 150.062 384.64 149.998 385.273 149.935V162C384.323 162.127 383.246 162.253 382.043 162.38C380.84 162.507 379.7 162.57 378.623 162.57Z" fill="#006837"/>
<path d="M329.826 163.14C324.126 163.14 319.155 161.81 314.911 159.15C310.731 156.427 307.881 152.785 306.361 148.225L316.811 143.285C318.141 146.072 319.946 148.257 322.226 149.84C324.506 151.423 327.04 152.215 329.826 152.215C331.853 152.215 333.405 151.803 334.481 150.98C335.558 150.157 336.096 149.017 336.096 147.56C336.096 146.8 335.906 146.167 335.526 145.66C335.146 145.09 334.576 144.583 333.816 144.14C333.056 143.697 332.106 143.317 330.966 143L322.131 140.53C317.888 139.327 314.626 137.395 312.346 134.735C310.066 132.012 308.926 128.813 308.926 125.14C308.926 121.91 309.75 119.092 311.396 116.685C313.043 114.278 315.355 112.41 318.331 111.08C321.308 109.687 324.728 108.99 328.591 108.99C333.658 108.99 338.091 110.193 341.891 112.6C345.755 114.943 348.478 118.268 350.061 122.575L339.516 127.515C338.756 125.362 337.363 123.652 335.336 122.385C333.373 121.055 331.125 120.39 328.591 120.39C326.755 120.39 325.298 120.77 324.221 121.53C323.208 122.29 322.701 123.335 322.701 124.665C322.701 125.362 322.891 125.995 323.271 126.565C323.651 127.135 324.253 127.642 325.076 128.085C325.963 128.528 327.04 128.94 328.306 129.32L336.571 131.79C340.878 133.057 344.171 134.988 346.451 137.585C348.731 140.118 349.871 143.253 349.871 146.99C349.871 150.22 349.016 153.038 347.306 155.445C345.66 157.852 343.348 159.752 340.371 161.145C337.395 162.475 333.88 163.14 329.826 163.14Z" fill="#006837"/>
<path d="M278.112 163.14C272.982 163.14 268.295 161.968 264.052 159.625C259.872 157.282 256.515 154.083 253.982 150.03C251.512 145.913 250.277 141.258 250.277 136.065C250.277 130.808 251.512 126.153 253.982 122.1C256.515 118.047 259.872 114.848 264.052 112.505C268.295 110.162 272.982 108.99 278.112 108.99C283.242 108.99 287.897 110.162 292.077 112.505C296.257 114.848 299.582 118.047 302.052 122.1C304.585 126.153 305.852 130.808 305.852 136.065C305.852 141.258 304.585 145.913 302.052 150.03C299.582 154.083 296.257 157.282 292.077 159.625C287.897 161.968 283.242 163.14 278.112 163.14ZM278.112 150.315C280.708 150.315 282.957 149.713 284.857 148.51C286.82 147.307 288.34 145.628 289.417 143.475C290.557 141.322 291.127 138.852 291.127 136.065C291.127 133.278 290.557 130.84 289.417 128.75C288.34 126.597 286.82 124.918 284.857 123.715C282.957 122.448 280.708 121.815 278.112 121.815C275.515 121.815 273.235 122.448 271.272 123.715C269.308 124.918 267.757 126.597 266.617 128.75C265.54 130.84 265.002 133.278 265.002 136.065C265.002 138.852 265.54 141.322 266.617 143.475C267.757 145.628 269.308 147.307 271.272 148.51C273.235 149.713 275.515 150.315 278.112 150.315Z" fill="#006837"/>
<path d="M228.555 163.14C222.855 163.14 217.883 161.81 213.64 159.15C209.46 156.427 206.61 152.785 205.09 148.225L215.54 143.285C216.87 146.072 218.675 148.257 220.955 149.84C223.235 151.423 225.768 152.215 228.555 152.215C230.582 152.215 232.133 151.803 233.21 150.98C234.287 150.157 234.825 149.017 234.825 147.56C234.825 146.8 234.635 146.167 234.255 145.66C233.875 145.09 233.305 144.583 232.545 144.14C231.785 143.697 230.835 143.317 229.695 143L220.86 140.53C216.617 139.327 213.355 137.395 211.075 134.735C208.795 132.012 207.655 128.813 207.655 125.14C207.655 121.91 208.478 119.092 210.125 116.685C211.772 114.278 214.083 112.41 217.06 111.08C220.037 109.687 223.457 108.99 227.32 108.99C232.387 108.99 236.82 110.193 240.62 112.6C244.483 114.943 247.207 118.268 248.79 122.575L238.245 127.515C237.485 125.362 236.092 123.652 234.065 122.385C232.102 121.055 229.853 120.39 227.32 120.39C225.483 120.39 224.027 120.77 222.95 121.53C221.937 122.29 221.43 123.335 221.43 124.665C221.43 125.362 221.62 125.995 222 126.565C222.38 127.135 222.982 127.642 223.805 128.085C224.692 128.528 225.768 128.94 227.035 129.32L235.3 131.79C239.607 133.057 242.9 134.988 245.18 137.585C247.46 140.118 248.6 143.253 248.6 146.99C248.6 150.22 247.745 153.038 246.035 155.445C244.388 157.852 242.077 159.752 239.1 161.145C236.123 162.475 232.608 163.14 228.555 163.14Z" fill="#006837"/>
<path d="M543.675 71.9999V46.0115H548.863V51.1035L548.239 50.431C548.879 48.7977 549.904 47.5647 551.313 46.7321C552.722 45.8674 554.356 45.4351 556.213 45.4351C558.135 45.4351 559.832 45.8514 561.305 46.684C562.778 47.5167 563.931 48.6696 564.764 50.1428C565.596 51.6159 566.013 53.3132 566.013 55.2348V71.9999H560.633V56.6759C560.633 55.3629 560.392 54.258 559.912 53.3613C559.432 52.4326 558.743 51.728 557.846 51.2476C556.982 50.7352 555.989 50.479 554.868 50.479C553.747 50.479 552.738 50.7352 551.842 51.2476C550.977 51.728 550.304 52.4326 549.824 53.3613C549.344 54.29 549.103 55.3949 549.103 56.6759V71.9999H543.675Z" fill="#006837"/>
<path d="M527.201 72.5763C525.248 72.5763 523.534 72.144 522.061 71.2793C520.588 70.3826 519.435 69.1497 518.603 67.5804C517.802 65.9792 517.402 64.1377 517.402 62.0561V46.0115H522.83V61.5757C522.83 62.7606 523.07 63.8015 523.55 64.6982C524.031 65.5949 524.703 66.2994 525.568 66.8118C526.433 67.2922 527.425 67.5324 528.546 67.5324C529.699 67.5324 530.708 67.2762 531.573 66.7638C532.437 66.2514 533.11 65.5308 533.59 64.6021C534.103 63.6733 534.359 62.5845 534.359 61.3355V46.0115H539.739V71.9999H534.599V66.9079L535.176 67.5804C534.567 69.1817 533.558 70.4146 532.149 71.2793C530.74 72.144 529.091 72.5763 527.201 72.5763Z" fill="#006837"/>
<path d="M496.932 72V46.0116H502.12V51.2477L501.64 50.4791C502.216 48.7817 503.145 47.5648 504.426 46.8282C505.707 46.0596 507.244 45.6753 509.038 45.6753H510.623V50.6232H508.365C506.572 50.6232 505.115 51.1836 503.994 52.3045C502.905 53.3934 502.361 54.9626 502.361 57.0122V72H496.932Z" fill="#006837"/>
<path d="M480.488 72.5764C477.99 72.5764 475.7 71.9839 473.619 70.799C471.569 69.6141 469.936 67.9968 468.719 65.9472C467.502 63.8976 466.893 61.5757 466.893 58.9817C466.893 56.3556 467.502 54.0338 468.719 52.0162C469.936 49.9666 471.569 48.3654 473.619 47.2125C475.668 46.0275 477.958 45.4351 480.488 45.4351C483.05 45.4351 485.34 46.0275 487.357 47.2125C489.407 48.3654 491.024 49.9666 492.209 52.0162C493.426 54.0338 494.035 56.3556 494.035 58.9817C494.035 61.6078 493.426 63.9456 492.209 65.9952C490.992 68.0448 489.359 69.6621 487.309 70.847C485.26 71.9999 482.986 72.5764 480.488 72.5764ZM480.488 67.5324C482.025 67.5324 483.386 67.1641 484.571 66.4276C485.756 65.691 486.685 64.6822 487.357 63.4012C488.062 62.0881 488.414 60.615 488.414 58.9817C488.414 57.3484 488.062 55.8913 487.357 54.6103C486.685 53.3293 485.756 52.3205 484.571 51.5839C483.386 50.8473 482.025 50.479 480.488 50.479C478.983 50.479 477.622 50.8473 476.405 51.5839C475.22 52.3205 474.275 53.3293 473.571 54.6103C472.898 55.8913 472.562 57.3484 472.562 58.9817C472.562 60.615 472.898 62.0881 473.571 63.4012C474.275 64.6822 475.22 65.691 476.405 66.4276C477.622 67.1641 478.983 67.5324 480.488 67.5324Z" fill="#006837"/>
<path d="M438.17 81.6075V46.0115H443.359V51.3917L442.734 50.1428C443.695 48.6696 444.976 47.5167 446.577 46.684C448.178 45.8514 450.004 45.4351 452.053 45.4351C454.519 45.4351 456.729 46.0275 458.683 47.2125C460.668 48.3974 462.221 50.0147 463.342 52.0643C464.495 54.1139 465.072 56.4197 465.072 58.9817C465.072 61.5437 464.495 63.8495 463.342 65.8991C462.221 67.9487 460.684 69.582 458.731 70.799C456.777 71.9839 454.551 72.5764 452.053 72.5764C450.036 72.5764 448.194 72.1601 446.529 71.3274C444.896 70.4947 443.631 69.2938 442.734 67.7246L443.599 66.7158V81.6075H438.17ZM451.525 67.5324C453.062 67.5324 454.423 67.1641 455.608 66.4276C456.793 65.691 457.722 64.6822 458.394 63.4012C459.099 62.0881 459.451 60.615 459.451 58.9817C459.451 57.3484 459.099 55.8913 458.394 54.6103C457.722 53.3293 456.793 52.3205 455.608 51.5839C454.423 50.8473 453.062 50.479 451.525 50.479C450.02 50.479 448.659 50.8473 447.442 51.5839C446.257 52.3205 445.312 53.3293 444.608 54.6103C443.935 55.8913 443.599 57.3484 443.599 58.9817C443.599 60.615 443.935 62.0881 444.608 63.4012C445.312 64.6822 446.257 65.691 447.442 66.4276C448.659 67.1641 450.02 67.5324 451.525 67.5324Z" fill="#006837"/>
<path d="M175.794 142.576C173.2 142.576 170.894 141.984 168.877 140.799C166.891 139.582 165.338 137.949 164.217 135.899C163.096 133.818 162.536 131.496 162.536 128.934C162.536 126.308 163.096 123.986 164.217 121.968C165.37 119.951 166.907 118.365 168.829 117.212C170.75 116.028 172.928 115.435 175.362 115.435C177.315 115.435 179.061 115.771 180.598 116.444C182.135 117.116 183.432 118.045 184.489 119.23C185.546 120.383 186.346 121.712 186.891 123.217C187.467 124.722 187.756 126.324 187.756 128.021C187.756 128.437 187.74 128.87 187.708 129.318C187.676 129.766 187.611 130.183 187.515 130.567H166.811V126.244H184.441L181.847 128.213C182.167 126.644 182.055 125.251 181.511 124.034C180.998 122.785 180.198 121.808 179.109 121.104C178.052 120.367 176.803 119.999 175.362 119.999C173.921 119.999 172.64 120.367 171.519 121.104C170.398 121.808 169.533 122.833 168.925 124.178C168.316 125.491 168.076 127.092 168.204 128.982C168.044 130.743 168.284 132.28 168.925 133.593C169.597 134.906 170.526 135.931 171.711 136.668C172.928 137.404 174.305 137.773 175.842 137.773C177.411 137.773 178.74 137.42 179.829 136.716C180.95 136.011 181.831 135.099 182.471 133.978L186.891 136.139C186.378 137.356 185.578 138.461 184.489 139.454C183.432 140.415 182.151 141.183 180.646 141.76C179.173 142.304 177.556 142.576 175.794 142.576Z" fill="#006837"/>
<path d="M158.236 142.288C155.514 142.288 153.4 141.52 151.895 139.982C150.39 138.445 149.637 136.284 149.637 133.497V120.911H145.074V116.012H145.794C147.011 116.012 147.956 115.659 148.628 114.955C149.301 114.25 149.637 113.289 149.637 112.073V110.055H155.066V116.012H160.974V120.911H155.066V133.257C155.066 134.154 155.21 134.922 155.498 135.563C155.786 136.171 156.25 136.652 156.891 137.004C157.531 137.324 158.364 137.484 159.389 137.484C159.645 137.484 159.933 137.468 160.254 137.436C160.574 137.404 160.878 137.372 161.166 137.34V142C160.718 142.064 160.222 142.128 159.677 142.192C159.133 142.256 158.652 142.288 158.236 142.288Z" fill="#006837"/>
<path d="M121.25 142V116.012H126.438V121.104L125.814 120.431C126.454 118.798 127.479 117.565 128.888 116.732C130.297 115.867 131.93 115.435 133.788 115.435C135.709 115.435 137.407 115.851 138.88 116.684C140.353 117.517 141.506 118.67 142.339 120.143C143.171 121.616 143.588 123.313 143.588 125.235V142H138.207V126.676C138.207 125.363 137.967 124.258 137.487 123.361C137.006 122.433 136.318 121.728 135.421 121.248C134.556 120.735 133.564 120.479 132.443 120.479C131.322 120.479 130.313 120.735 129.416 121.248C128.552 121.728 127.879 122.433 127.399 123.361C126.918 124.29 126.678 125.395 126.678 126.676V142H121.25Z" fill="#006837"/>
<path d="M106.393 142.576C103.799 142.576 101.493 141.984 99.4753 140.799C97.4898 139.582 95.9366 137.949 94.8157 135.899C93.6948 133.818 93.1344 131.496 93.1344 128.934C93.1344 126.308 93.6948 123.986 94.8157 121.968C95.9686 119.951 97.5058 118.365 99.4273 117.212C101.349 116.028 103.527 115.435 105.96 115.435C107.914 115.435 109.659 115.771 111.197 116.444C112.734 117.116 114.031 118.045 115.088 119.23C116.144 120.383 116.945 121.712 117.489 123.217C118.066 124.722 118.354 126.324 118.354 128.021C118.354 128.437 118.338 128.87 118.306 129.318C118.274 129.766 118.21 130.183 118.114 130.567H97.4097V126.244H115.04L112.446 128.213C112.766 126.644 112.654 125.251 112.109 124.034C111.597 122.785 110.796 121.808 109.707 121.104C108.651 120.367 107.402 119.999 105.96 119.999C104.519 119.999 103.238 120.367 102.117 121.104C100.997 121.808 100.132 122.833 99.5234 124.178C98.9149 125.491 98.6747 127.092 98.8028 128.982C98.6427 130.743 98.8829 132.28 99.5234 133.593C100.196 134.906 101.125 135.931 102.31 136.668C103.527 137.404 104.904 137.773 106.441 137.773C108.01 137.773 109.339 137.42 110.428 136.716C111.549 136.011 112.43 135.099 113.07 133.978L117.489 136.139C116.977 137.356 116.176 138.461 115.088 139.454C114.031 140.415 112.75 141.183 111.245 141.76C109.771 142.304 108.154 142.576 106.393 142.576Z" fill="#006837"/>
<path d="M81.6188 142.576C78.9607 142.576 76.6229 141.92 74.6053 140.607C72.6197 139.294 71.2267 137.532 70.426 135.323L74.6053 133.353C75.3099 134.826 76.2706 135.995 77.4876 136.86C78.7366 137.725 80.1136 138.157 81.6188 138.157C82.8998 138.157 83.9406 137.869 84.7413 137.292C85.5419 136.716 85.9422 135.931 85.9422 134.938C85.9422 134.298 85.7661 133.785 85.4138 133.401C85.0615 132.985 84.6132 132.649 84.0687 132.392C83.5563 132.136 83.0279 131.944 82.4835 131.816L78.4003 130.663C76.1585 130.023 74.4772 129.062 73.3563 127.781C72.2675 126.468 71.723 124.947 71.723 123.217C71.723 121.648 72.1234 120.287 72.924 119.134C73.7246 117.949 74.8295 117.036 76.2386 116.396C77.6477 115.755 79.2329 115.435 80.9943 115.435C83.3642 115.435 85.4779 116.028 87.3353 117.212C89.1928 118.365 90.5058 119.983 91.2744 122.064L87.0951 124.034C86.5827 122.785 85.7661 121.792 84.6452 121.055C83.5563 120.319 82.3234 119.951 80.9463 119.951C79.7614 119.951 78.8166 120.239 78.1121 120.815C77.4075 121.36 77.0552 122.08 77.0552 122.977C77.0552 123.585 77.2154 124.098 77.5356 124.514C77.8559 124.898 78.2722 125.219 78.7846 125.475C79.297 125.699 79.8254 125.891 80.3698 126.051L84.5972 127.3C86.7428 127.909 88.3921 128.87 89.545 130.183C90.6979 131.464 91.2744 133.001 91.2744 134.794C91.2744 136.331 90.8581 137.693 90.0254 138.877C89.2248 140.03 88.1039 140.943 86.6628 141.616C85.2216 142.256 83.5403 142.576 81.6188 142.576Z" fill="#006837"/>
<path d="M57.1541 142.576C54.5601 142.576 52.2543 141.984 50.2367 140.799C48.2511 139.582 46.6979 137.949 45.577 135.899C44.4561 133.818 43.8957 131.496 43.8957 128.934C43.8957 126.308 44.4561 123.986 45.577 121.968C46.7299 119.951 48.2671 118.365 50.1886 117.212C52.1101 116.028 54.2879 115.435 56.7218 115.435C58.6753 115.435 60.4207 115.771 61.9579 116.444C63.4951 117.116 64.7921 118.045 65.8489 119.23C66.9058 120.383 67.7064 121.712 68.2508 123.217C68.8273 124.722 69.1155 126.324 69.1155 128.021C69.1155 128.437 69.0995 128.87 69.0675 129.318C69.0354 129.766 68.9714 130.183 68.8753 130.567H48.1711V126.244H65.8009L63.2069 128.213C63.5271 126.644 63.415 125.251 62.8706 124.034C62.3582 122.785 61.5576 121.808 60.4687 121.104C59.4119 120.367 58.1629 119.999 56.7218 119.999C55.2806 119.999 53.9996 120.367 52.8787 121.104C51.7579 121.808 50.8932 122.833 50.2847 124.178C49.6762 125.491 49.436 127.092 49.5641 128.982C49.404 130.743 49.6442 132.28 50.2847 133.593C50.9572 134.906 51.886 135.931 53.0709 136.668C54.2879 137.404 55.6649 137.773 57.2021 137.773C58.7714 137.773 60.1004 137.42 61.1893 136.716C62.3102 136.011 63.1908 135.099 63.8314 133.978L68.2508 136.139C67.7384 137.356 66.9378 138.461 65.8489 139.454C64.7921 140.415 63.5111 141.183 62.0059 141.76C60.5328 142.304 58.9155 142.576 57.1541 142.576Z" fill="#006837"/>
<path d="M29.9501 142V116.012H35.1382V121.248L34.6578 120.479C35.2343 118.782 36.163 117.565 37.444 116.828C38.725 116.06 40.2622 115.675 42.0556 115.675H43.6409V120.623H41.3831C39.5897 120.623 38.1325 121.184 37.0117 122.305C35.9228 123.393 35.3784 124.963 35.3784 127.012V142H29.9501Z" fill="#006837"/>
<path d="M0.170471 151.607V116.012H5.35855V121.392L4.73406 120.143C5.69481 118.67 6.97582 117.517 8.57708 116.684C10.1783 115.851 12.0038 115.435 14.0534 115.435C16.5193 115.435 18.7291 116.028 20.6826 117.212C22.6681 118.397 24.2214 120.015 25.3422 122.064C26.4952 124.114 27.0716 126.42 27.0716 128.982C27.0716 131.544 26.4952 133.85 25.3422 135.899C24.2214 137.949 22.6842 139.582 20.7306 140.799C18.7771 141.984 16.5513 142.576 14.0534 142.576C12.0358 142.576 10.1943 142.16 8.52904 141.327C6.89575 140.495 5.63076 139.294 4.73406 137.725L5.59874 136.716V151.607H0.170471ZM13.525 137.532C15.0622 137.532 16.4232 137.164 17.6082 136.428C18.7931 135.691 19.7218 134.682 20.3944 133.401C21.0989 132.088 21.4512 130.615 21.4512 128.982C21.4512 127.348 21.0989 125.891 20.3944 124.61C19.7218 123.329 18.7931 122.32 17.6082 121.584C16.4232 120.847 15.0622 120.479 13.525 120.479C12.0198 120.479 10.6587 120.847 9.44175 121.584C8.25682 122.32 7.31208 123.329 6.60753 124.61C5.935 125.891 5.59874 127.348 5.59874 128.982C5.59874 130.615 5.935 132.088 6.60753 133.401C7.31208 134.682 8.25682 135.691 9.44175 136.428C10.6587 137.164 12.0198 137.532 13.525 137.532Z" fill="#006837"/>
</svg>
