<svg width="239" height="247" viewBox="0 0 239 247" fill="none" xmlns="http://www.w3.org/2000/svg">
<path d="M209.684 119.482C205.938 139.958 185.575 185.327 167.321 194.152C166.536 194.541 165.731 194.855 164.966 195.1C164.708 195.169 164.436 195.262 164.191 195.307C164.191 195.307 83.0667 169.362 89.9815 141.237C90.1112 140.688 90.2913 140.106 90.5182 139.551C90.6164 139.327 90.6776 139.113 90.7758 138.889C99.7624 116.357 121.872 147.301 130.93 137.5C140.078 127.596 86.2118 102.453 94.2139 86.6482C94.2949 86.5079 94.3759 86.3676 94.4569 86.2272C94.9025 85.4555 95.3543 84.7809 95.8592 84.2304C104.324 75.0234 122.746 95.4505 126.239 82.0009C129.76 68.5045 102.095 36.9727 125.288 27.9116C126.006 27.6401 126.761 27.3588 127.609 27.1315C128.619 26.8412 129.712 26.5681 130.899 26.3489C154.258 21.9679 160.402 73.5983 160.402 73.5983C160.402 73.5983 167.45 47.0779 181.161 50.6593C181.459 50.7376 181.78 50.8295 182.087 50.9448C182.586 51.1078 183.02 51.3274 183.465 51.584C202.147 62.4326 159.844 143.156 187.718 114.159C196.053 105.501 202.552 101.644 206.46 102.653C207.283 102.848 207.971 103.276 208.551 103.892C210.734 106.213 211.244 111.433 209.754 119.523L209.684 119.482Z" fill="#E4E4E4"/>
<path d="M206.403 102.589C205.882 103.598 205.339 104.594 204.795 105.59C201.188 112.27 197.37 118.828 193.539 125.409C189.118 132.96 184.64 140.446 180.125 147.942C176.322 154.259 172.482 160.586 168.632 166.876C167.383 168.931 166.111 170.972 164.863 173.026C164.486 170.438 164.072 167.861 163.658 165.283C161.417 151.828 158.525 138.528 155.402 125.249C156.351 122.742 157.337 120.224 158.286 117.716C160.625 111.613 162.963 105.511 165.301 99.4083C168.158 91.9213 171.029 84.4111 173.862 76.9106C176.394 70.2027 178.926 63.4948 181.435 56.7734C182.073 55.0211 182.757 53.2957 183.408 51.52C182.987 51.277 182.516 51.0672 182.031 50.8808C181.723 50.7656 181.402 50.6737 181.104 50.5954C180.697 51.7324 180.277 52.8928 179.833 54.0397C177.449 60.4904 175.029 66.9509 172.585 73.398C169.738 80.9218 166.891 88.4456 164.02 95.9559C161.594 102.319 159.144 108.669 156.717 115.032C155.931 117.042 155.182 119.042 154.396 121.051C154.261 120.475 154.136 119.935 153.988 119.381C151.206 107.89 148.423 96.3989 145.235 85.0163C142.228 74.2375 139.074 63.4982 135.772 52.7985C133.13 44.1951 130.439 35.6251 127.525 27.1143C126.7 27.3552 125.936 27.5996 125.204 27.8944C127.572 34.8117 129.778 41.792 131.961 48.7587C135.28 59.3748 138.452 70.0304 141.475 80.7256C144.384 90.9178 146.975 101.176 149.515 111.467C150.38 114.991 151.245 118.515 152.074 122.049C150.397 120.956 148.747 119.817 147.084 118.701C141.814 115.191 136.535 111.643 131.278 108.11C125.137 104.003 118.985 99.8585 112.857 95.7281C107.647 92.2213 102.414 88.7011 97.2047 85.1944C96.7271 84.8875 96.2396 84.5436 95.7521 84.1998C95.2472 84.7502 94.772 85.4113 94.3498 86.1966C99.2923 89.5179 104.258 92.8527 109.201 96.174C115.305 100.291 121.433 104.421 127.575 108.529C133.028 112.207 138.519 115.876 143.986 119.531C146.928 121.51 149.893 123.503 152.876 125.412C155.276 135.622 157.541 145.849 159.488 156.14C160.683 162.443 161.743 168.761 162.633 175.106C161.854 174.781 161.065 174.419 160.286 174.094C157.953 173.059 155.66 171.953 153.367 170.848C146.899 167.737 140.499 164.51 134.076 161.269C126.821 157.579 119.555 153.852 112.313 150.139C106.258 147.017 100.216 143.872 94.174 140.726C93.001 140.112 91.8515 139.51 90.6785 138.895C90.5804 139.119 90.5192 139.333 90.421 139.557C90.2175 140.126 90.0509 140.685 89.8843 141.243C90.4222 141.554 90.9871 141.818 91.5385 142.105C97.3097 145.125 103.071 148.108 108.856 151.105C116.061 154.828 123.279 158.528 130.511 162.205C137.122 165.554 143.732 168.902 150.397 172.158C154.418 174.105 158.465 176.223 162.692 177.759C162.785 177.813 162.892 177.844 162.999 177.874C163.781 183.596 164.415 189.356 164.892 195.12C165.047 197.174 165.202 199.228 165.333 201.268C165.39 202.143 165.446 203.017 165.466 203.901C165.497 204.387 165.515 204.896 165.533 205.406C165.526 205.526 165.515 205.707 165.531 205.841C165.551 205.915 165.547 205.975 165.52 206.022C164.237 206.03 164.074 208.149 165.482 208.464C167.012 208.785 167.879 207.228 167.945 205.926C168.058 204.057 167.788 202.093 167.683 200.223C167.561 198.22 167.416 196.203 167.234 194.196C167.092 192.336 166.926 190.463 166.723 188.6C166.318 184.655 165.864 180.744 165.312 176.84C166.691 174.612 168.034 172.394 169.414 170.166C173.129 164.109 176.821 158.04 180.489 151.957C185.031 144.413 189.536 136.88 194.008 129.297C198.038 122.425 202.058 115.516 205.901 108.536C206.755 107.002 207.586 105.455 208.393 103.894C207.813 103.279 207.125 102.85 206.302 102.656L206.403 102.589Z" fill="white"/>
<path d="M137.26 118.783C147.524 133.627 162.83 173.926 157.078 190.531C156.817 191.253 156.546 191.939 156.219 192.56C156.097 192.771 155.989 192.958 155.868 193.168C155.868 193.168 90.2233 226.988 77.2122 205.506C76.9595 205.08 76.7204 204.63 76.4947 204.156C76.4084 203.982 76.3356 203.784 76.2493 203.609C67.9481 184.286 100.472 189.686 100.004 178.128C99.5434 166.449 51.121 184.05 46.3224 169.462C46.2694 169.337 46.2298 169.19 46.2002 169.079C45.9791 168.328 45.875 167.644 45.841 167.001C45.3901 156.17 69.1865 157.404 63.0965 146.997C56.9831 136.576 20.6747 134.167 29.3375 114.41C29.6049 113.785 29.8957 113.173 30.2737 112.518C30.7328 111.723 31.2189 110.881 31.8021 110.033C43.4338 93.0188 78.8416 120.914 78.8416 120.914C78.8416 120.914 66.9251 100.345 77.5106 94.1083C77.7491 93.9654 78.0109 93.8359 78.2727 93.7065C78.6722 93.5006 79.0915 93.3684 79.4973 93.2597C97.6062 88.4668 121.159 163.9 120.47 129.014C120.262 118.573 121.888 112.246 124.911 110.468C125.539 110.082 126.226 109.917 126.95 109.961C129.703 110.053 133.22 112.926 137.27 118.819L137.26 118.783Z" fill="#D5D5D5"/>
<path d="M124.888 110.454C125.181 111.403 125.452 112.339 125.746 113.288C127.63 119.584 129.317 125.952 130.99 132.344C132.897 139.681 134.767 147.028 136.6 154.385C138.163 160.589 139.653 166.812 141.179 173.026C141.662 175.051 142.146 177.076 142.653 179.115C140.847 177.761 139.004 176.416 137.17 175.108C127.541 168.239 117.605 161.847 107.574 155.619C106.625 153.481 105.677 151.343 104.738 149.242C102.423 144.071 100.122 138.875 97.8302 133.717C94.9812 127.363 92.1556 121.023 89.2833 114.657C86.7328 108.974 84.1688 103.316 81.5679 97.6669C80.881 96.2101 80.2445 94.7201 79.5711 93.24C79.1654 93.3487 78.7461 93.4808 78.3466 93.6867C78.0847 93.8161 77.8229 93.9456 77.5844 94.0886C78.0358 95.0352 78.4736 96.0051 78.9114 96.9751C81.4161 102.413 83.874 107.823 86.3418 113.27C89.2142 119.637 92.0632 125.99 94.8986 132.367C97.3098 137.751 99.7074 143.157 102.119 148.541C102.875 150.256 103.644 151.947 104.4 153.662C103.956 153.406 103.535 153.163 103.104 152.883C94.3522 147.518 85.5966 142.214 76.6557 137.176C68.2194 132.399 59.6786 127.749 51.1073 123.206C44.2135 119.537 37.3026 115.953 30.3107 112.508C29.9461 113.14 29.6418 113.775 29.3744 114.4C35.063 117.185 40.7074 120.101 46.3248 123.064C54.8628 127.557 63.3469 132.143 71.777 136.823C79.7959 141.297 86.8014 144.718 94.6583 149.472C97.3541 151.122 100.932 153.999 103.628 155.649C101.925 156.006 100.225 156.303 98.5218 156.661C93.1209 157.752 87.7334 158.82 82.336 159.851C76.0435 161.083 69.7509 162.314 63.4448 163.569C58.0942 164.627 52.7337 165.648 47.3831 166.706C46.8937 166.798 46.4043 166.889 45.8779 166.991C45.9119 167.634 46.0026 168.341 46.2371 169.069C51.3295 168.08 56.3985 167.078 61.4675 166.076C67.7465 164.868 74.0157 163.623 80.2849 162.378C85.8802 161.274 91.4755 160.17 97.0843 159.043C100.108 158.45 103.132 157.857 106.16 157.204C113.906 161.988 121.538 166.862 129.058 171.984C133.637 175.126 138.174 178.338 142.608 181.677C141.936 181.976 141.232 182.224 140.551 182.485C138.471 183.28 136.394 184.014 134.317 184.749C128.446 186.816 122.546 188.773 116.635 190.692C109.91 192.89 103.198 195.064 96.4756 197.201C90.8504 199.005 85.2153 200.772 79.5802 202.539C78.5068 202.886 77.41 203.219 76.3132 203.553C76.386 203.751 76.4724 203.925 76.5587 204.1C76.7843 204.573 77.0235 205.023 77.2762 205.45C77.8061 205.288 78.2992 205.136 78.8057 204.961C84.1826 203.263 89.5595 201.565 94.9364 199.867C101.621 197.74 108.32 195.589 115.032 193.415C121.141 191.423 127.263 189.407 133.328 187.327C136.998 186.047 140.758 184.881 144.292 183.242C144.38 183.199 144.467 183.156 144.554 183.113C148.533 186.159 152.458 189.298 156.269 192.527C157.627 193.685 158.985 194.844 160.293 196.035C160.867 196.554 161.431 197.035 162.005 197.553C162.338 197.84 162.672 198.126 162.969 198.422C163.049 198.499 163.139 198.614 163.219 198.691C163.265 198.718 163.312 198.745 163.346 198.795C162.572 199.596 163.758 200.998 164.802 200.323C165.948 199.581 165.529 198.092 164.769 197.248C163.693 196.034 162.327 194.996 161.11 193.919C159.812 192.764 158.477 191.619 157.129 190.498C155.898 189.444 154.653 188.413 153.385 187.369C150.731 185.214 148.028 183.091 145.297 181.016C144.764 178.806 144.255 176.61 143.722 174.4C142.278 168.422 140.811 162.43 139.344 156.437C137.501 149.043 135.658 141.649 133.741 134.275C132.003 127.565 130.237 120.902 128.3 114.264C127.868 112.799 127.436 111.333 126.99 109.891C126.253 109.871 125.566 110.035 124.951 110.397L124.888 110.454Z" fill="white"/>
</svg>
