<svg width="220" height="220" viewBox="0 0 220 220" fill="none" xmlns="http://www.w3.org/2000/svg">
<path d="M102.622 83.1846C138.644 73.4934 178.677 81.1305 181.627 83.8876C168.848 92.476 160.907 107.089 149.217 117.207C137.61 127.243 122.529 131.572 107.461 134.177C68.0896 140.987 46.5566 129.214 40.5599 124.458C40.5599 124.458 55.1037 95.9638 102.622 83.1846Z" fill="#D5D5D5"/>
<path d="M91.0426 136.066C91.7594 136.038 92.4763 135.983 93.2207 135.928L72.9422 113.251C80.6483 110.563 88.0373 108.109 95.0679 105.876L116.918 132.275C117.538 132.123 118.145 131.985 118.765 131.834L96.8049 105.324C106.868 102.154 116.174 99.4378 124.541 97.1356L148.997 117.4C148.997 117.4 149.135 117.29 149.204 117.221C149.576 116.904 149.92 116.559 150.293 116.242L126.554 96.5842C132.565 94.9575 138.065 93.5376 142.986 92.3107C161.321 87.7891 174.652 85.3215 181.145 84.2324C181.31 84.1221 181.462 83.998 181.627 83.8878C181.31 83.5707 180.511 83.2123 179.311 82.8125C172.804 83.9429 161.266 86.1348 145.936 89.8293L149.052 78.5528C148.473 78.5252 147.88 78.5114 147.301 78.4838L144.048 90.2842C143.579 90.3945 143.11 90.5048 142.628 90.6289C130.442 93.6341 114.74 97.8663 96.5292 103.615L101.244 83.5707C100.61 83.7361 99.9756 83.9291 99.3552 84.1083L94.6268 104.221C83.6535 107.695 71.798 111.721 59.2532 116.353C59.8598 113.568 61.2107 107.364 62.4514 101.63C61.7346 102.154 61.0453 102.65 60.3698 103.16C59.2532 108.302 58.0814 113.72 57.3508 117.069C52.0985 119.013 46.736 121.067 41.2907 123.232C40.7944 124.031 40.5738 124.472 40.5738 124.472C40.8082 124.652 41.0563 124.845 41.332 125.038C51.6849 120.943 61.6795 117.235 71.219 113.871L91.0701 136.066L91.0426 136.066Z" fill="white"/>
<path d="M41.6768 65.0567C56.4686 35.7073 85.0046 13.8987 88.5475 13.5816C86.6865 27.0225 91.6217 40.808 91.3873 54.4418C91.153 67.9654 85.1563 80.4137 78.0154 91.8281C59.3636 121.674 38.9748 128.911 32.3302 130.069C32.3302 130.069 22.1703 103.78 41.6768 65.0567Z" fill="#D5D5D5"/>
<path d="M69.6198 103.725C70.0058 103.229 70.4193 102.732 70.8191 102.222L44.0201 102.222C46.7772 95.5778 49.5067 89.2916 52.1673 83.3501L82.3438 84.4942C82.6195 83.998 82.8815 83.5155 83.1296 83.0192L52.829 81.8612C56.6476 73.3831 60.3421 65.6908 63.7334 58.8532L91.4009 54.6762C91.4009 54.6762 91.4009 54.5108 91.4147 54.4418C91.4285 54.0145 91.4147 53.5871 91.4009 53.1598L64.5605 57.199C67.0143 52.2913 69.3165 47.8386 71.4119 43.8959C79.2145 29.2006 85.418 18.9993 88.5197 14.0779C88.5473 13.9124 88.5611 13.7332 88.5749 13.554C88.1751 13.5954 87.472 13.8849 86.4933 14.4501C83.4191 19.3991 78.0841 28.2632 71.5084 40.4909L65.9253 31.8198C65.5669 32.1782 65.1947 32.5505 64.8638 32.9365L70.7089 42.0073C70.5021 42.3795 70.3091 42.7655 70.1023 43.1377C64.9189 52.8979 58.4811 65.7046 51.547 81.0479L41.1527 66.1871C40.9046 66.7109 40.6427 67.221 40.3945 67.7449L50.8164 82.6608C46.6669 91.9109 42.3383 102.057 38.0096 113.003C36.5346 110.976 33.2536 106.427 30.207 102.25C30.1243 103.022 30.0554 103.78 30.0002 104.525C32.7298 108.274 35.5834 112.231 37.3617 114.671C35.5558 119.261 33.7499 123.99 31.9578 128.842C32.2059 129.642 32.3576 130.042 32.3576 130.042C32.6195 130 32.8952 129.945 33.1847 129.876C36.5759 120.667 40.0085 111.914 43.3998 103.697L69.6336 103.711L69.6198 103.725Z" fill="white"/>
<path d="M109.873 132.123C139.223 146.915 161.031 175.451 161.349 178.994C147.908 177.133 134.122 182.068 120.488 181.834C106.965 181.599 94.5164 175.602 83.102 168.462C53.2564 149.81 46.019 129.421 44.861 122.776C44.861 122.776 71.15 112.616 109.873 132.123Z" fill="#D5D5D5"/>
<path d="M71.2051 160.066C71.7013 160.452 72.1976 160.866 72.7077 161.266V134.467C79.3523 137.224 85.6385 139.953 91.58 142.614L90.4359 172.79C90.9321 173.066 91.4146 173.328 91.9109 173.576L93.0689 143.276C101.547 147.094 109.239 150.789 116.077 154.18L120.254 181.848C120.254 181.848 120.419 181.848 120.488 181.861C120.916 181.875 121.343 181.861 121.77 181.848L117.731 155.007C122.639 157.461 127.092 159.763 131.034 161.859C145.73 169.661 155.931 175.865 160.852 178.966C161.018 178.994 161.197 179.008 161.376 179.021C161.335 178.622 161.031 177.905 160.48 176.94C155.531 173.866 146.667 168.531 134.439 161.955L143.11 156.372C142.752 156.013 142.38 155.641 141.994 155.31L132.923 161.155C132.551 160.949 132.165 160.756 131.792 160.549C122.032 155.366 109.225 148.928 93.8822 141.994L108.743 131.599C108.219 131.351 107.709 131.089 107.185 130.841L92.2693 141.263C83.0192 137.114 72.8731 132.785 61.9274 128.456C63.9539 126.981 68.5031 123.7 72.6801 120.654C71.9081 120.571 71.1499 120.502 70.4055 120.447C66.6558 123.176 62.6994 126.03 60.2594 127.808C55.6688 126.002 50.9404 124.197 46.0879 122.404C45.2883 122.653 44.8885 122.804 44.8885 122.804C44.9299 123.066 44.985 123.342 45.0539 123.631C54.2627 127.023 63.0165 130.455 71.2326 133.846L71.2189 160.08L71.2051 160.066Z" fill="white"/>
</svg>
