<svg xmlns="http://www.w3.org/2000/svg" viewBox="0 0 156.18 187.41"><defs><style>.cls-1{fill:#747d86;}.cls-2{fill:#0e0708;}.cls-2,.cls-3,.cls-4,.cls-5,.cls-6,.cls-7,.cls-8{fill-rule:evenodd;}.cls-3{fill:#c3b85d;}.cls-4{fill:#e2b037;}.cls-5{fill:#529050;}.cls-6{fill:#c18e74;}.cls-7{fill:#65916a;}.cls-8{fill:#cebf5a;}</style></defs><g id="Capa_2" data-name="Capa 2"><g id="Capa_1-2" data-name="Capa 1"><path class="cls-1" d="M15.06,132.66c-.58,0-.83-.25-.83-.82V118.65a7,7,0,0,0-2.12-4.71c-.16-.14-.13-.38.08-.72a.42.42,0,0,1,.39-.18h6.54c.58,0,.82.24.82.84v18c0,.57-.25.82-.82.82Zm0-23c-.59,0-.83-.24-.83-.83v-1.34c0-.57.25-.82.83-.82h4c.58,0,.83.25.83.82v1.34c0,.59-.24.83-.83.83Z"/><path class="cls-1" d="M13.38,135.8v1a.94.94,0,0,1-.61.87l-.25.09a9.31,9.31,0,0,1-3.21.58,7.39,7.39,0,0,1-5.17-1.8c-1.28-1.19-1.93-3.05-1.93-5.53V129.3h0V111A6.81,6.81,0,0,0,.1,106.61a.24.24,0,0,1-.09-.16.15.15,0,0,1,0-.07v0l0-.13c-.07-.14,0-.35.15-.62a.42.42,0,0,1,.39-.18H7.11c.58,0,.82.24.82.84l-.07,24.65c0,1.46.65,3.19,3.74,3.19h0a1.73,1.73,0,0,1,1.77,1.7"/><path class="cls-1" d="M105.71,133.17c-3.46,0-6.23-.86-8.22-2.56s-3-4.25-3-7.58a11,11,0,0,1,2.74-7.81,10,10,0,0,1,7.59-2.88,9.73,9.73,0,0,1,6.85,2.38,8.55,8.55,0,0,1,2.57,6.56,15.8,15.8,0,0,1-.11,2.13c-.08.53-.36.76-1,.76H100.36a.27.27,0,0,0-.2.09.28.28,0,0,0-.07.21,4.94,4.94,0,0,0,1.88,3.46,6.8,6.8,0,0,0,4.18,1.18,19.57,19.57,0,0,0,5.39-.87,2,2,0,0,1,.53-.09.67.67,0,0,1,.33.08.43.43,0,0,1,.17.44V131a1.14,1.14,0,0,1-.84,1.18,18.49,18.49,0,0,1-6,1m-1-17a4.13,4.13,0,0,0-3.22,1.27,5.57,5.57,0,0,0-1.34,3.17.26.26,0,0,0,.07.21.27.27,0,0,0,.2.09h8.27a.28.28,0,0,0,.28-.27,4.58,4.58,0,0,0-1.15-3.2,4,4,0,0,0-3.11-1.27"/><path class="cls-1" d="M116.14,132.66c-.6,0-.85-.23-.85-.78v-2.15a2,2,0,0,1,.57-1.38l8.91-10.68a.28.28,0,0,0,0-.29.27.27,0,0,0-.25-.16H117c-.62,0-.88-.22-.88-.77v-2.63c0-.55.26-.78.88-.78h14.14c.6,0,.86.24.86.78v2.26a1.53,1.53,0,0,1-.1.61,3.07,3.07,0,0,1-.47.66L122.54,128a.26.26,0,0,0,0,.28.28.28,0,0,0,.25.16h9.18c.57,0,.82.24.82.81v2.63c0,.55-.24.78-.82.78Z"/><path class="cls-1" d="M37.22,163.36c-.6,0-.86-.25-.86-.82V144.62c0-.61.25-.87.82-.87h3.43c.6,0,.84.25.84.87V146a.28.28,0,0,0,.21.27h.06a.29.29,0,0,0,.25-.14,5.62,5.62,0,0,1,1.85-2.11,4.55,4.55,0,0,1,2.69-.81,7,7,0,0,1,1.56.15,1,1,0,0,1,.49.25,1.06,1.06,0,0,1,.12.6v3.05c0,.44-.19.62-.67.62h-.69c-.34,0-.59,0-.81,0a4.13,4.13,0,0,0-3.44,1.43,5.46,5.46,0,0,0-1.16,3.56v9.66c0,.57-.26.82-.86.82Z"/><path class="cls-1" d="M62.46,139.91c-.55,0-.78-.24-.78-.84V117.6a.13.13,0,0,0,0-.06,6.22,6.22,0,0,0-2-3.6c-.16-.14-.13-.38.08-.72a.42.42,0,0,1,.39-.18H62.6a1.12,1.12,0,0,1,1.06.57.27.27,0,0,0,.24.14H64c.58-.2,1.3-.4,2.14-.61a19.25,19.25,0,0,1,4.72-.58c3.37,0,6,.82,7.86,2.44s2.73,4.13,2.73,7.49a10.63,10.63,0,0,1-2.71,7.6A9.75,9.75,0,0,1,71.21,133a10.69,10.69,0,0,1-3.65-.63l-.1,0a.28.28,0,0,0-.27.28v6.48a.78.78,0,0,1-.22.62.89.89,0,0,1-.64.22Zm7.93-23.39a7.59,7.59,0,0,0-3,.65.26.26,0,0,0-.16.25v10.64a.27.27,0,0,0,.14.23,6.12,6.12,0,0,0,3.09.74,4.76,4.76,0,0,0,4-1.8,7.61,7.61,0,0,0,1.33-4.67c0-4-1.82-6-5.39-6"/><path class="cls-1" d="M115.51,163.36a.8.8,0,0,1-.58-.18,1,1,0,0,1-.16-.64V150.73c0-1.45-.65-3.19-3.74-3.19a5.11,5.11,0,0,0-2.84.77A2.55,2.55,0,0,0,107,150.5v12c0,.57-.26.82-.86.82h-3.87c-.58,0-.82-.24-.82-.82v-13.3a6.84,6.84,0,0,0-2.1-4.52c-.16-.13-.14-.38.07-.72a.42.42,0,0,1,.39-.18h2.14a1,1,0,0,1,.32,0H106c.59,0,.83.25.83.84v.72a.28.28,0,0,0,.16.25l.11,0a.29.29,0,0,0,.18-.07,8.39,8.39,0,0,1,2.83-1.64,9.39,9.39,0,0,1,3.22-.57,7.35,7.35,0,0,1,5.16,1.79c1.28,1.2,1.93,3.06,1.93,5.53v11.89c0,.57-.26.82-.88.82Z"/><path class="cls-1" d="M60.49,163.74a19,19,0,0,1-8-1.52,1.53,1.53,0,0,1-.65-.49,1.3,1.3,0,0,1-.21-.82V132.29a.2.2,0,0,0,0-.07,1.92,1.92,0,0,1,0-.38V120a2.89,2.89,0,0,0-1-2.4,4,4,0,0,0-2.59-.78,4.47,4.47,0,0,0-2.66.74,2.62,2.62,0,0,0-1.15,2.09v12.17c0,.57-.26.82-.86.82h-4.1a.8.8,0,0,1-.58-.18.85.85,0,0,1-.18-.64V120a2.9,2.9,0,0,0-1-2.39,4,4,0,0,0-2.6-.79,4.47,4.47,0,0,0-2.7.78,2.53,2.53,0,0,0-1.11,2.18v12c0,.57-.25.82-.86.82H26.34c-.57,0-.82-.25-.82-.82V118.93a7,7,0,0,0-2.14-5c-.16-.14-.14-.38.07-.72a.43.43,0,0,1,.39-.18h2.44a1.39,1.39,0,0,1,.3,0h3.56c.57,0,.82.25.82.83v.9a.26.26,0,0,0,.17.25l.1,0a.27.27,0,0,0,.19-.08,8.38,8.38,0,0,1,2.67-1.73,8.12,8.12,0,0,1,3.08-.65c2.76,0,4.67.87,5.85,2.64a.27.27,0,0,0,.2.12h0a.26.26,0,0,0,.19-.07,10,10,0,0,1,3.07-2,9.43,9.43,0,0,1,3.63-.74,7.34,7.34,0,0,1,5.15,1.8c1.3,1.21,1.94,3,1.94,5.53v11.89a1.1,1.1,0,0,1-.07.4.36.36,0,0,0,0,.1v11.91a.26.26,0,0,0,.13.23.27.27,0,0,0,.15.05.2.2,0,0,0,.11,0,11.14,11.14,0,0,1,4.69-1,10.79,10.79,0,0,1,3.55.56,8.48,8.48,0,0,1,2.87,1.69,7.4,7.4,0,0,1,2,3,12.67,12.67,0,0,1,.72,4.41,10.39,10.39,0,0,1-2.93,7.66,10.66,10.66,0,0,1-7.9,2.94m.24-16.37a6.5,6.5,0,0,0-3.45.9.27.27,0,0,0-.14.23V159a.27.27,0,0,0,.18.25,7.78,7.78,0,0,0,2.92.54A5.22,5.22,0,0,0,64.45,158a7,7,0,0,0,1.47-4.67,6.44,6.44,0,0,0-1.36-4.48,5,5,0,0,0-3.83-1.48"/><path class="cls-1" d="M148.93,133.21c-.6,0-.74-.26-.8-.49a.29.29,0,0,0-.14-.17.31.31,0,0,0-.13,0h-.1a13.37,13.37,0,0,1-4.4.68,10.91,10.91,0,0,1-7.78-2.7c-1.88-1.78-2.83-4.42-2.83-7.84a10.17,10.17,0,0,1,2.78-7.52c1.84-1.84,4.48-2.77,7.83-2.77a6.2,6.2,0,0,1,3.58,1.08,3.63,3.63,0,0,0,1.91.71,3.51,3.51,0,0,0,1.69-.52,6.09,6.09,0,0,1,2.55-.61h2.51a.4.4,0,0,1,.39.18c.22.34.24.58.08.72a6.72,6.72,0,0,0-2.14,4.37v14.08c0,.58-.24.82-.84.82Zm-5.65-17a4.48,4.48,0,0,0-3.91,1.78,8.12,8.12,0,0,0-1.22,4.68,7.8,7.8,0,0,0,1.25,4.66,4.41,4.41,0,0,0,3.88,1.77,4.49,4.49,0,0,0,3.9-1.79,6.31,6.31,0,0,0,.9-2,10.46,10.46,0,0,0,.33-2.68,10.18,10.18,0,0,0-.33-2.74,6.3,6.3,0,0,0-.88-1.94,4.48,4.48,0,0,0-3.92-1.78"/><path class="cls-1" d="M139.16,164c-.6,0-.75-.26-.8-.49a.26.26,0,0,0-.14-.17.32.32,0,0,0-.14,0H138a13.37,13.37,0,0,1-4.4.68,10.91,10.91,0,0,1-7.78-2.7c-1.88-1.78-2.83-4.42-2.83-7.84a10.2,10.2,0,0,1,2.77-7.52c1.85-1.84,4.49-2.77,7.84-2.77a6.2,6.2,0,0,1,3.58,1.08,3.65,3.65,0,0,0,1.9.71,3.46,3.46,0,0,0,1.7-.53,6.15,6.15,0,0,1,2.54-.6h2.51a.42.42,0,0,1,.4.18c.21.34.24.58.08.71a6.76,6.76,0,0,0-2.14,4.37v14.09c0,.58-.25.82-.85.82Zm-5.65-17a4.46,4.46,0,0,0-3.91,1.78,8,8,0,0,0-1.23,4.68,7.8,7.8,0,0,0,1.25,4.66,5.14,5.14,0,0,0,7.78,0,5.89,5.89,0,0,0,.9-2,11.29,11.29,0,0,0,0-5.42,6,6,0,0,0-.88-1.94,4.46,4.46,0,0,0-3.91-1.78"/><path class="cls-1" d="M89.49,164c-.6,0-.74-.26-.8-.49a.26.26,0,0,0-.14-.17.28.28,0,0,0-.13,0h-.09a13.43,13.43,0,0,1-4.41.68,10.88,10.88,0,0,1-7.77-2.7c-1.88-1.78-2.84-4.42-2.84-7.84a10.21,10.21,0,0,1,2.78-7.52c1.85-1.84,4.48-2.77,7.83-2.77a6.2,6.2,0,0,1,3.58,1.08,3.72,3.72,0,0,0,1.91.71,3.43,3.43,0,0,0,1.69-.53,6.21,6.21,0,0,1,2.55-.6h2.51a.42.42,0,0,1,.4.18c.21.34.24.58.07.71a6.76,6.76,0,0,0-2.14,4.37v14.09c0,.58-.24.82-.84.82Zm-5.64-17a4.48,4.48,0,0,0-3.92,1.78,8.1,8.1,0,0,0-1.22,4.68A7.8,7.8,0,0,0,80,158.15a5.14,5.14,0,0,0,7.78,0,6.31,6.31,0,0,0,.9-2,11.29,11.29,0,0,0,0-5.42,6,6,0,0,0-.88-1.94A4.48,4.48,0,0,0,83.85,147"/><path class="cls-1" d="M32.8,162.68a.42.42,0,0,1-.39.18H30.27a1.39,1.39,0,0,1-.32,0H26.2c-.58,0-.82-.24-.82-.83v-.73a.25.25,0,0,0-.17-.24.2.2,0,0,0-.11,0,.31.31,0,0,0-.18.07,8.14,8.14,0,0,1-2.83,1.64,9.32,9.32,0,0,1-3.22.58,7.37,7.37,0,0,1-5.16-1.8c-1.28-1.19-1.93-3.06-1.93-5.53v-1.68h0v-5.76a6.85,6.85,0,0,0-2.09-4.37c-.16-.13-.13-.37.08-.71a.4.4,0,0,1,.38-.18h6.55a.81.81,0,0,1,.59.17,1,1,0,0,1,.16.64V156c0,1.45.65,3.18,3.73,3.18a5.12,5.12,0,0,0,2.85-.77,2.55,2.55,0,0,0,1.21-2.19v-12c0-.57.26-.81.87-.81H30c.59,0,.82.23.82.81v13.31A6.84,6.84,0,0,0,32.88,162c.16.14.13.38-.08.72"/><path class="cls-1" d="M86.16,132.66c-.58,0-.83-.25-.83-.82V118.65a7,7,0,0,0-2.12-4.71c-.16-.14-.13-.38.08-.72a.42.42,0,0,1,.39-.18h6.54c.58,0,.82.24.82.84v18c0,.57-.25.82-.82.82Zm0-23c-.59,0-.83-.24-.83-.83v-1.34c0-.57.25-.82.83-.82h4.06c.57,0,.82.25.82.82v1.34c0,.59-.24.83-.82.83Z"/><path class="cls-1" d="M46.85,181.91a.39.39,0,0,1,.15-.33.46.46,0,0,1,.39-.05l.67.23a6.64,6.64,0,0,0,1.12.35,4.28,4.28,0,0,0,1.1.15c.94,0,1.41-.23,1.41-.7a.59.59,0,0,0-.26-.49,2.33,2.33,0,0,0-.67-.33l-.92-.26a6.61,6.61,0,0,1-1-.33,4.15,4.15,0,0,1-.91-.49,2,2,0,0,1-.67-.79,2.49,2.49,0,0,1-.27-1.19,2.37,2.37,0,0,1,1-2.05,4.5,4.5,0,0,1,2.65-.7,8.14,8.14,0,0,1,2.49.36.61.61,0,0,1,.44.6V177c0,.24-.11.36-.34.36a.94.94,0,0,1-.22,0l-.43-.11-.62-.14-.58-.09a3.78,3.78,0,0,0-.63,0,2.54,2.54,0,0,0-1,.15c-.25.1-.37.25-.37.45a.49.49,0,0,0,.2.4,1.66,1.66,0,0,0,.55.27l.77.22.88.24a4.36,4.36,0,0,1,.88.35,4.29,4.29,0,0,1,.77.51,2.13,2.13,0,0,1,.54.77,2.73,2.73,0,0,1,.2,1.1,2.87,2.87,0,0,1-.31,1.38,2.18,2.18,0,0,1-.87.91,3.9,3.9,0,0,1-1.23.48,7.34,7.34,0,0,1-4.5-.47.85.85,0,0,1-.32-.25.69.69,0,0,1-.1-.38Z"/><path class="cls-1" d="M55.3,181.46H57a.48.48,0,0,1,.48.48v1.62A.47.47,0,0,1,57,184H55.3a.48.48,0,0,1-.48-.48v-1.62A.47.47,0,0,1,55.3,181.46Z"/><path class="cls-1" d="M68.79,181.46h1.66a.48.48,0,0,1,.48.48v1.62a.47.47,0,0,1-.47.47H68.8a.48.48,0,0,1-.48-.48v-1.62A.47.47,0,0,1,68.79,181.46Z"/><path class="cls-1" d="M77.31,176.22a4.3,4.3,0,0,1,3.33-1.3,4.19,4.19,0,0,1,3,1.07,3.86,3.86,0,0,1,1.14,2.95,7.17,7.17,0,0,1,0,.95.46.46,0,0,1-.52.43H78.74a2.1,2.1,0,0,0,.76,1.44,2.76,2.76,0,0,0,1.71.49,8,8,0,0,0,2.27-.38.55.55,0,0,1,.46,0,.31.31,0,0,1,.13.3v1a.62.62,0,0,1-.44.63,7.77,7.77,0,0,1-2.61.43,5.24,5.24,0,0,1-3.58-1.15,4.26,4.26,0,0,1-1.32-3.4,5,5,0,0,1,1.19-3.49m5,2.43a1.93,1.93,0,0,0-.46-1.32,1.58,1.58,0,0,0-1.24-.52,1.65,1.65,0,0,0-1.29.52,2.39,2.39,0,0,0-.54,1.32Z"/><path class="cls-1" d="M85.75,181.46h1.66a.48.48,0,0,1,.48.48v1.62a.47.47,0,0,1-.47.47H85.75a.48.48,0,0,1-.48-.48v-1.62A.47.47,0,0,1,85.75,181.46Z"/><path class="cls-1" d="M89.19,181.91a.39.39,0,0,1,.15-.33.44.44,0,0,1,.38-.05l.68.23a6.83,6.83,0,0,0,1.11.35,4.4,4.4,0,0,0,1.1.15c1,0,1.41-.23,1.41-.7a.61.61,0,0,0-.25-.49,2.33,2.33,0,0,0-.67-.33l-.92-.26a6.27,6.27,0,0,1-1-.33,4.15,4.15,0,0,1-.91-.49,2.12,2.12,0,0,1-.68-.79,2.61,2.61,0,0,1-.26-1.19,2.37,2.37,0,0,1,1-2.05,4.48,4.48,0,0,1,2.65-.7,8.14,8.14,0,0,1,2.49.36.61.61,0,0,1,.44.6V177a.32.32,0,0,1-.35.36.86.86,0,0,1-.21,0l-.43-.11-.62-.14-.58-.09a3.78,3.78,0,0,0-.63,0,2.54,2.54,0,0,0-1,.15c-.25.1-.37.25-.37.45a.49.49,0,0,0,.2.4,1.7,1.7,0,0,0,.54.27l.77.22.88.24A4.22,4.22,0,0,1,95,179a3.88,3.88,0,0,1,.76.51,2.13,2.13,0,0,1,.54.77,2.73,2.73,0,0,1,.21,1.1,3,3,0,0,1-.31,1.38,2.25,2.25,0,0,1-.87.91,3.9,3.9,0,0,1-1.23.48,7.34,7.34,0,0,1-4.5-.47.78.78,0,0,1-.32-.25.61.61,0,0,1-.1-.38Z"/><path class="cls-1" d="M97.63,181.46h1.66a.48.48,0,0,1,.48.48v1.62a.47.47,0,0,1-.47.47H97.63a.48.48,0,0,1-.48-.48v-1.62A.47.47,0,0,1,97.63,181.46Z"/><path class="cls-1" d="M100.66,176.44a.61.61,0,0,1,.12-.41,1.25,1.25,0,0,1,.34-.26,8.35,8.35,0,0,1,1.52-.5,8,8,0,0,1,2-.26,5,5,0,0,1,3.43,1.1,4.33,4.33,0,0,1,1.2,3.36,4.8,4.8,0,0,1-1.19,3.4,4.26,4.26,0,0,1-3.29,1.3,4.4,4.4,0,0,1-1.6-.29v3.05a.47.47,0,0,1-.13.36.51.51,0,0,1-.35.12h-1.65c-.31,0-.45-.16-.45-.48Zm2.58,5.47a2.53,2.53,0,0,0,1.26.3,1.89,1.89,0,0,0,1.63-.74,3.26,3.26,0,0,0,.54-2c0-1.68-.73-2.52-2.18-2.52a3.09,3.09,0,0,0-1.25.27Z"/><path class="cls-1" d="M66.66,175.23H64.93a.49.49,0,0,0-.34.1,5.31,5.31,0,0,0-2.12-.4,4.44,4.44,0,0,0-3.35,1.25,4.7,4.7,0,0,0-1.19,3.37,4.75,4.75,0,0,0,1.22,3.51,4.49,4.49,0,0,0,3.32,1.22,5.23,5.23,0,0,0,2.09-.39.42.42,0,0,0,.37.14h1.73a.41.41,0,0,0,.47-.47v-7.85a.42.42,0,0,0-.47-.48M64,181.53a1.91,1.91,0,0,1-3,0,3.44,3.44,0,0,1-.49-2,3.58,3.58,0,0,1,.48-2,1.93,1.93,0,0,1,3,0,3.58,3.58,0,0,1,.48,2,3.51,3.51,0,0,1-.49,2"/><path class="cls-2" d="M70.28,78.81h0c0-.1,0-.21,0-.32a1.74,1.74,0,0,1,0,.32"/><path class="cls-3" d="M70,77.37a1.13,1.13,0,0,1,0-.79,4.63,4.63,0,0,1,.23,1.91A4.59,4.59,0,0,0,70,77.37"/><path class="cls-3" d="M85.77,79.17v.09a.28.28,0,0,1,0-.09Z"/><path class="cls-4" d="M99,9.87c-5.31,1.16-9,3.23-11.32,6.25-3.36,4.47-3.65,11-4,17.83-.41,9.3-.88,19.85-9.12,28a34.07,34.07,0,0,1-9.94,6.64,1.18,1.18,0,0,0-.53,1.68c.25.41.51.8.78,1.18a1.85,1.85,0,0,0,1.92.73,32.79,32.79,0,0,0,4-1.12c9.14-3.28,12.47-9.75,15.7-16,2.56-5,5.21-10.09,10.62-13,3.4-1.84,7.58-2.64,12.77-2.41a16.28,16.28,0,0,0-9-29.83,16.48,16.48,0,0,0-1.87.1"/><path class="cls-5" d="M91.69,7.39c-11.64,5.19-12.11,15.9-12.58,26.36-.39,8.87-.8,18-7.75,24.9C67.44,62.5,61.7,65.41,54,67.4a1.93,1.93,0,0,1-1.21-.07A16,16,0,0,1,50,66a.82.82,0,0,1,.1-1.45A28.28,28.28,0,0,0,60.8,56.87C65,51.77,66.19,45.78,66,39.64a12.49,12.49,0,0,0,7.54-10.92,11.47,11.47,0,0,0-.08-2.12,5.89,5.89,0,0,0,.94-1.51A6.16,6.16,0,0,0,75,22.93v-.15c2.71-.68,3.82-2.21,2.84-2.16s-3.47-.65-3.93-1.47a6.08,6.08,0,0,0-4.72-2.6,5.87,5.87,0,0,0-2.65.47,6.08,6.08,0,0,0-3.25,3.23,42.84,42.84,0,0,1-.74-8.79h0A16.27,16.27,0,0,1,91.69,7.39"/><path class="cls-6" d="M61.44,41.92a19.3,19.3,0,0,1-4.17,12c-2.64,3.18-6.61,5.71-12,7.61a16.27,16.27,0,0,1,2.08-21.27,16.28,16.28,0,0,1,7.92-30.5A17,17,0,0,1,58,10c-.47,4.82.56,10.32,1.63,16a12.16,12.16,0,0,0-4.24,8.7c0,.39,0,.77,0,1.15-.54.55-6.46,3.57-5.71,8,0,0,2.08,9.78,6.17.92,3.55-7.71,5.64-3.38,5.62-2.89"/><path class="cls-7" d="M72.27,20.19a1.73,1.73,0,1,0-.93,2.27,1.74,1.74,0,0,0,.93-2.27m-.73,0a.92.92,0,0,1-1.21-.49.5.5,0,0,1,0-.13l.1-.05a.93.93,0,0,1,1.22.5l0,.12-.1.05"/><path class="cls-8" d="M91.69,71.21c.32-.47,1.92-3,2.46-2.88a16.29,16.29,0,0,0,19.7-15.91v-.85A16.2,16.2,0,0,0,112.2,45a1.17,1.17,0,0,0-1-.67c-5.07-.42-9,.16-12,1.75C95.1,48.3,93,52.39,90.54,57.13a64.45,64.45,0,0,1-4.4,7.64,27.15,27.15,0,0,1-12.31,10c-.49.21-1,.41-1.52.59s-1,.34-1.5.5a1.19,1.19,0,0,0-.77.73l.06.2a.6.6,0,0,0-.06.11,4.78,4.78,0,0,1,.24,1.33,2.44,2.44,0,0,1,0,.27c0,.05,0,.11,0,.16s0,.1,0,.16h0a8,8,0,0,1-.92,2.57l0,0c-3,5.2-11.63,7.41-22.17,8.7a1,1,0,0,0-.81,1.21,1,1,0,0,0,.07.57c.33.87,1.79,1.8,5.62,1.8,6.94.21,10.56-1.63,15.38-2.92,1.46-.39,4.4-1.93,4.42,2.16,0,1,2.08,1.32,6.4-1.16,6.11-3.55,12.5,0,12.5,0,6,2.93,13.77.42,13.77.42a8.31,8.31,0,0,0,4.3-2.43c.31-.37.43-.66.31-.78.11-.25,0-.4-.25-.38-11.76.64-18.26-3.36-20.37-5-1.78-1.59-2.52-2.91-2.67-4.17a8.48,8.48,0,0,1,.39-1.56c.69-1.85,4.09-4.51,5.51-6.62"/></g></g></svg>