<svg width="33" height="32" viewBox="0 0 33 32" fill="none" xmlns="http://www.w3.org/2000/svg">
<g clip-path="url(#clip0_37_1093)">
<path d="M19.7107 18.1538L22.5857 19.5888C22.4494 20.2697 22.0811 20.8823 21.5436 21.322C21.0061 21.7618 20.3326 22.0014 19.6382 22C17.252 21.9974 14.9644 21.0483 13.2771 19.3611C11.5899 17.6738 10.6408 15.3862 10.6382 13C10.638 12.3064 10.8781 11.6342 11.3178 11.0977C11.7574 10.5612 12.3693 10.1937 13.0494 10.0575L14.4844 12.9325L13.2632 14.75C13.1719 14.8869 13.1159 15.0442 13.0999 15.208C13.084 15.3717 13.1087 15.5369 13.1719 15.6888C13.8874 17.3893 15.2402 18.7421 16.9407 19.4575C17.0931 19.5235 17.2595 19.5505 17.4249 19.5361C17.5903 19.5217 17.7495 19.4664 17.8882 19.375L19.7107 18.1538ZM29.6382 16C29.6387 18.2445 29.0581 20.4508 27.9529 22.4042C26.8477 24.3577 25.2556 25.9917 23.3316 27.1473C21.4075 28.3029 19.217 28.9407 16.9734 28.9986C14.7297 29.0564 12.5093 28.5324 10.5282 27.4775L6.27193 28.8963C5.91954 29.0138 5.54138 29.0309 5.17984 28.9455C4.8183 28.8602 4.48767 28.6759 4.225 28.4132C3.96233 28.1506 3.778 27.8199 3.69268 27.4584C3.60736 27.0968 3.62441 26.7187 3.74193 26.3663L5.16068 22.11C4.23337 20.3666 3.71543 18.4348 3.64618 16.4613C3.57693 14.4877 3.95819 12.5244 4.76102 10.7202C5.56385 8.91604 6.76715 7.31847 8.27958 6.04878C9.79201 4.77909 11.5738 3.87063 13.4898 3.39238C15.4057 2.91413 17.4054 2.87865 19.3371 3.28862C21.2688 3.6986 23.0818 4.54327 24.6383 5.7585C26.1948 6.97374 27.454 8.52761 28.3204 10.3022C29.1867 12.0767 29.6374 14.0253 29.6382 16ZM24.6382 19C24.6383 18.8143 24.5867 18.6321 24.4891 18.474C24.3915 18.3159 24.2518 18.1882 24.0857 18.105L20.0857 16.105C19.9282 16.0266 19.7529 15.991 19.5773 16.002C19.4017 16.013 19.2321 16.0701 19.0857 16.1675L17.2494 17.3925C16.4065 16.9291 15.7128 16.2355 15.2494 15.3925L16.4744 13.5563C16.5719 13.4098 16.629 13.2403 16.64 13.0647C16.6509 12.8891 16.6154 12.7137 16.5369 12.5563L14.5369 8.55629C14.454 8.38888 14.3259 8.24803 14.1671 8.14972C14.0082 8.05141 13.825 7.99955 13.6382 8.00004C12.3121 8.00004 11.0403 8.52682 10.1026 9.46451C9.16497 10.4022 8.63818 11.674 8.63818 13C8.64149 15.9164 9.80148 18.7124 11.8637 20.7746C13.9258 22.8367 16.7218 23.9967 19.6382 24C20.2948 24 20.945 23.8707 21.5516 23.6194C22.1582 23.3682 22.7094 22.9999 23.1737 22.5356C23.638 22.0713 24.0063 21.5201 24.2576 20.9135C24.5089 20.3068 24.6382 19.6566 24.6382 19Z" fill="white"/>
</g>
<defs>
<clipPath id="clip0_37_1093">
<rect width="32" height="32" fill="white" transform="translate(0.638184)"/>
</clipPath>
</defs>
</svg>
